<svg width="23" height="16" viewBox="0 0 23 16" fill="currentColor" xmlns="http://www.w3.org/2000/svg">
<path d="M19.5 12.5C19.0833 12.5 18.7292 12.3542 18.4375 12.0625C18.1458 11.7708 18 11.4167 18 11V8.5C18 8.08333 18.1458 7.72917 18.4375 7.4375C18.7292 7.14583 19.0833 7 19.5 7C19.9167 7 20.2708 7.14583 20.5625 7.4375C20.8542 7.72917 21 8.08333 21 8.5V11C21 11.4167 20.8542 11.7708 20.5625 12.0625C20.2708 12.3542 19.9167 12.5 19.5 12.5ZM19 16V14.45C18.15 14.3167 17.4375 13.9292 16.8625 13.2875C16.2875 12.6458 16 11.8833 16 11H17C17 11.7 17.2417 12.2917 17.725 12.775C18.2083 13.2583 18.8 13.5 19.5 13.5C20.2 13.5 20.7917 13.2583 21.275 12.775C21.7583 12.2917 22 11.7 22 11H23C23 11.8833 22.7125 12.6458 22.1375 13.2875C21.5625 13.9292 20.85 14.3167 20 14.45V16H19ZM8 8C6.9 8 5.95833 7.60833 5.175 6.825C4.39167 6.04167 4 5.1 4 4C4 2.9 4.39167 1.95833 5.175 1.175C5.95833 0.391667 6.9 0 8 0C8.23333 0 8.4625 0.0166667 8.6875 0.05C8.9125 0.0833333 9.13333 0.141667 9.35 0.225C8.91667 0.741667 8.58333 1.32083 8.35 1.9625C8.11667 2.60417 8 3.28333 8 4C8 4.71667 8.11667 5.39583 8.35 6.0375C8.58333 6.67917 8.91667 7.25833 9.35 7.775C9.13333 7.85833 8.9125 7.91667 8.6875 7.95C8.4625 7.98333 8.23333 8 8 8ZM0 16V13.225C0 12.6583 0.141667 12.1333 0.425 11.65C0.708333 11.1667 1.1 10.8 1.6 10.55C2.23333 10.2167 2.92083 9.92917 3.6625 9.6875C4.40417 9.44583 5.21667 9.25833 6.1 9.125C5.43333 9.59167 4.91667 10.1833 4.55 10.9C4.18333 11.6167 4 12.3917 4 13.225V16H0ZM14 8C12.9 8 11.9583 7.60833 11.175 6.825C10.3917 6.04167 10 5.1 10 4C10 2.9 10.3917 1.95833 11.175 1.175C11.9583 0.391667 12.9 0 14 0C15.1 0 16.0417 0.391667 16.825 1.175C17.6083 1.95833 18 2.9 18 4C18 5.1 17.6083 6.04167 16.825 6.825C16.0417 7.60833 15.1 8 14 8ZM14 6C14.55 6 15.0208 5.80417 15.4125 5.4125C15.8042 5.02083 16 4.55 16 4C16 3.45 15.8042 2.97917 15.4125 2.5875C15.0208 2.19583 14.55 2 14 2C13.45 2 12.9792 2.19583 12.5875 2.5875C12.1958 2.97917 12 3.45 12 4C12 4.55 12.1958 5.02083 12.5875 5.4125C12.9792 5.80417 13.45 6 14 6ZM6 16V13.225C6 12.6583 6.14167 12.1333 6.425 11.65C6.70833 11.1667 7.1 10.8 7.6 10.55C8.45 10.1167 9.4125 9.75 10.4875 9.45C11.5625 9.15 12.7333 9 14 9C14.2 9 14.3958 9.00417 14.5875 9.0125C14.7792 9.02083 14.9667 9.03333 15.15 9.05C14.9833 9.35 14.8458 9.6625 14.7375 9.9875C14.6292 10.3125 14.5583 10.65 14.525 11H14C12.8 11 11.7375 11.15 10.8125 11.45C9.8875 11.75 9.125 12.05 8.525 12.35C8.35833 12.4333 8.22917 12.5542 8.1375 12.7125C8.04583 12.8708 8 13.0417 8 13.225V14H15.175C15.425 14.4333 15.7333 14.8167 16.1 15.15C16.4667 15.4833 16.875 15.7667 17.325 16H6Z" fill="currentColor"/>
</svg>
