<svg width="24" height="9" viewBox="0 0 24 9" fill="currentColor" xmlns="http://www.w3.org/2000/svg">
<path d="M3.3998 8.4L1.0998 6.15C0.899805 5.95 0.799805 5.71667 0.799805 5.45C0.799805 5.18333 0.899805 4.95 1.0998 4.75C2.56647 3.16667 4.25814 1.97917 6.1748 1.1875C8.09147 0.395833 10.0331 0 11.9998 0C13.9665 0 15.904 0.395833 17.8123 1.1875C19.7206 1.97917 21.4165 3.16667 22.8998 4.75C23.0998 4.95 23.1998 5.18333 23.1998 5.45C23.1998 5.71667 23.0998 5.95 22.8998 6.15L20.5998 8.4C20.4165 8.58333 20.204 8.68333 19.9623 8.7C19.7206 8.71667 19.4998 8.65 19.2998 8.5L16.3998 6.3C16.2665 6.2 16.1665 6.08333 16.0998 5.95C16.0331 5.81667 15.9998 5.66667 15.9998 5.5V2.65C15.3665 2.45 14.7165 2.29167 14.0498 2.175C13.3831 2.05833 12.6998 2 11.9998 2C11.2998 2 10.6165 2.05833 9.94981 2.175C9.28314 2.29167 8.63314 2.45 7.9998 2.65V5.5C7.9998 5.66667 7.96647 5.81667 7.8998 5.95C7.83314 6.08333 7.73314 6.2 7.5998 6.3L4.6998 8.5C4.4998 8.65 4.27897 8.71667 4.0373 8.7C3.79564 8.68333 3.58314 8.58333 3.3998 8.4ZM5.9998 3.45C5.51647 3.7 5.0498 3.9875 4.5998 4.3125C4.1498 4.6375 3.68314 5 3.1998 5.4L4.1998 6.4L5.9998 5V3.45ZM17.9998 3.5V5L19.7998 6.4L20.7998 5.45C20.3165 5.01667 19.8498 4.64167 19.3998 4.325C18.9498 4.00833 18.4831 3.73333 17.9998 3.5Z" fill="currentColor"/>
</svg>
