<svg width="30" height="22" viewBox="0 0 30 22" fill="currentColor" xmlns="http://www.w3.org/2000/svg">
<path d="M21.4438 10.7221L23.6097 8.5562C23.8887 8.26732 24.0431 7.8804 24.0396 7.47879C24.0361 7.07718 23.875 6.693 23.591 6.40901C23.307 6.12501 22.9228 5.96392 22.5212 5.96043C22.1196 5.95694 21.7327 6.11133 21.4438 6.39035L19.2779 8.5562L17.1121 6.39035C16.9708 6.24405 16.8018 6.12736 16.6149 6.04709C16.428 5.96681 16.227 5.92456 16.0236 5.92279C15.8203 5.92102 15.6186 5.95978 15.4303 6.03679C15.2421 6.11381 15.0711 6.22754 14.9272 6.37136C14.7834 6.51518 14.6697 6.6862 14.5927 6.87444C14.5157 7.06269 14.4769 7.26438 14.4787 7.46776C14.4804 7.67114 14.5227 7.87214 14.603 8.05901C14.6832 8.24589 14.7999 8.41491 14.9462 8.5562L17.1121 10.7221L14.9462 12.8879C14.7999 13.0292 14.6832 13.1982 14.603 13.3851C14.5227 13.572 14.4804 13.773 14.4787 13.9764C14.4769 14.1797 14.5157 14.3814 14.5927 14.5697C14.6697 14.7579 14.7834 14.9289 14.9272 15.0728C15.0711 15.2166 15.2421 15.3303 15.4303 15.4073C15.6186 15.4843 15.8203 15.5231 16.0236 15.5213C16.227 15.5196 16.428 15.4773 16.6149 15.397C16.8018 15.3168 16.9708 15.2001 17.1121 15.0538L19.2779 12.8879L21.4438 15.0538C21.5851 15.2001 21.7541 15.3168 21.941 15.397C22.1279 15.4773 22.3289 15.5196 22.5322 15.5213C22.7356 15.5231 22.9373 15.4843 23.1256 15.4073C23.3138 15.3303 23.4848 15.2166 23.6286 15.0728C23.7725 14.9289 23.8862 14.7579 23.9632 14.5697C24.0402 14.3814 24.079 14.1797 24.0772 13.9764C24.0754 13.773 24.0332 13.572 23.9529 13.3851C23.8726 13.1982 23.7559 13.0292 23.6097 12.8879L21.4438 10.7221ZM11.3559 0H26.9366C27.749 0 28.5282 0.322755 29.1027 0.897263C29.6772 1.47177 30 2.25097 30 3.06345V18.3807C30 19.1932 29.6772 19.9723 29.1027 20.5469C28.5282 21.1214 27.749 21.4441 26.9366 21.4441H11.3559C10.5435 21.4439 9.76439 21.1211 9.19001 20.5465L0.448468 11.805C0.161314 11.5177 0 11.1282 0 10.7221C0 10.3159 0.161314 9.92637 0.448468 9.63913L9.19001 0.89759C9.76439 0.323042 10.5435 0.000173506 11.3559 0Z" fill="currentColor"/>
</svg>
