<svg width="20" height="24" viewBox="0 0 20 24" fill="currentColor" xmlns="http://www.w3.org/2000/svg">
<path d="M17.2415 0.75H4.58259C3.1035 0.750686 1.90453 1.94949 1.90402 3.42857V4.58571H0.645089C0.349118 4.58571 0.109375 4.82563 0.109375 5.12143C0.109375 5.41723 0.349118 5.65714 0.645089 5.65714H1.89849V9.17143H0.645089C0.349118 9.17143 0.109375 9.41117 0.109375 9.70714C0.109375 10.0029 0.349118 10.2429 0.645089 10.2429H1.89849V13.7571H0.645089C0.349118 13.7571 0.109375 13.9971 0.109375 14.2929C0.109375 14.5888 0.349118 14.8286 0.645089 14.8286H1.89849V18.3429H0.645089C0.349118 18.3429 0.109375 18.5828 0.109375 18.8786C0.109375 19.1744 0.349118 19.4143 0.645089 19.4143H1.89849V20.5714C1.89917 22.0505 3.09797 23.2493 4.57706 23.25H17.236C18.7151 23.2493 19.9143 22.0505 19.9146 20.5714V3.42857C19.9167 1.95051 18.7196 0.750986 17.2415 0.75ZM18.8487 20.5714C18.846 21.4579 18.128 22.176 17.2415 22.1786H4.58259C3.69613 22.176 2.97797 21.4579 2.97545 20.5714V19.4143H4.22885C4.52482 19.4143 4.76456 19.1744 4.76456 18.8786C4.76456 18.5828 4.52482 18.3429 4.22885 18.3429H2.97545V14.8286H4.22885C4.52482 14.8286 4.76456 14.5888 4.76456 14.2929C4.76456 13.9971 4.52482 13.7571 4.22885 13.7571H2.97545V10.2429H4.22885C4.52482 10.2429 4.76456 10.0029 4.76456 9.70714C4.76456 9.41117 4.52482 9.17143 4.22885 9.17143H2.97545V5.65714H4.22885C4.52482 5.65714 4.76456 5.41723 4.76456 5.12143C4.76456 4.82563 4.52482 4.58571 4.22885 4.58571H2.97545V3.42857C2.97797 2.54211 3.69613 1.82396 4.58259 1.82143H17.2415C18.128 1.82396 18.846 2.54211 18.8487 3.42857V20.5714Z" fill="currentColor"/>
<path d="M10.9093 11.8449C12.3441 11.8449 13.5075 10.6817 13.5075 9.24665C13.5075 7.81158 12.3441 6.64844 10.9093 6.64844C9.47422 6.64844 8.31104 7.81158 8.31104 9.24665C8.31237 10.681 9.4747 11.8435 10.9093 11.8449ZM10.9093 7.71451C11.7523 7.71451 12.436 8.39821 12.436 9.24129C12.436 10.0844 11.7523 10.7681 10.9093 10.7681C10.066 10.7681 9.38247 10.0844 9.38247 9.24129C9.38397 8.39889 10.0665 7.71601 10.9093 7.71451ZM10.9093 12.7074C8.68068 12.7074 6.93408 14.5127 6.93408 16.8217C6.93494 17.1172 7.17434 17.3565 7.4698 17.3574H14.3485C14.644 17.3565 14.8834 17.1172 14.8843 16.8217C14.8843 14.5127 13.1377 12.7074 10.9093 12.7074ZM8.04837 16.2859C8.2789 14.8234 9.43068 13.7788 10.9093 13.7788C12.3877 13.7788 13.545 14.8234 13.77 16.2859H8.04837Z" fill="currentColor"/>
</svg>
