<svg width="14" height="16" viewBox="0 0 14 16" fill="currentColor" xmlns="http://www.w3.org/2000/svg">
<path d="M1.66667 15.3327V13.9993H12.3333V15.3327H1.66667ZM1.66667 1.99935V0.666016H12.3333V1.99935H1.66667ZM7 8.66602C7.55556 8.66602 8.02778 8.47157 8.41667 8.08268C8.80556 7.69379 9 7.22157 9 6.66602C9 6.11046 8.80556 5.63824 8.41667 5.24935C8.02778 4.86046 7.55556 4.66602 7 4.66602C6.44444 4.66602 5.97222 4.86046 5.58333 5.24935C5.19444 5.63824 5 6.11046 5 6.66602C5 7.22157 5.19444 7.69379 5.58333 8.08268C5.97222 8.47157 6.44444 8.66602 7 8.66602ZM1.66667 13.3327C1.3 13.3327 0.986112 13.2021 0.725001 12.941C0.46389 12.6799 0.333334 12.366 0.333334 11.9993V3.99935C0.333334 3.63268 0.46389 3.31879 0.725001 3.05768C0.986112 2.79657 1.3 2.66602 1.66667 2.66602H12.3333C12.7 2.66602 13.0139 2.79657 13.275 3.05768C13.5361 3.31879 13.6667 3.63268 13.6667 3.99935V11.9993C13.6667 12.366 13.5361 12.6799 13.275 12.941C13.0139 13.2021 12.7 13.3327 12.3333 13.3327H1.66667ZM2.83333 11.9993C3.33333 11.3771 3.93889 10.8882 4.65 10.5327C5.36111 10.1771 6.14444 9.99935 7 9.99935C7.85556 9.99935 8.63889 10.1771 9.35 10.5327C10.0611 10.8882 10.6667 11.3771 11.1667 11.9993H12.3333V3.99935H1.66667V11.9993H2.83333ZM4.8 11.9993H9.2C8.87778 11.7771 8.53056 11.6105 8.15833 11.4993C7.78611 11.3882 7.4 11.3327 7 11.3327C6.6 11.3327 6.21389 11.3882 5.84167 11.4993C5.46944 11.6105 5.12222 11.7771 4.8 11.9993ZM7 7.33268C6.81111 7.33268 6.65278 7.26879 6.525 7.14102C6.39722 7.01324 6.33333 6.8549 6.33333 6.66602C6.33333 6.47713 6.39722 6.31879 6.525 6.19102C6.65278 6.06324 6.81111 5.99935 7 5.99935C7.18889 5.99935 7.34722 6.06324 7.475 6.19102C7.60278 6.31879 7.66667 6.47713 7.66667 6.66602C7.66667 6.8549 7.60278 7.01324 7.475 7.14102C7.34722 7.26879 7.18889 7.33268 7 7.33268Z" fill="currentColor"/>
</svg>
