<svg width="24" height="24" viewBox="0 0 24 24" fill="currentColor" xmlns="http://www.w3.org/2000/svg">
<path d="M3.4 20.4L1.1 18.15C0.899999 17.95 0.799999 17.7167 0.799999 17.45C0.799999 17.1833 0.899999 16.95 1.1 16.75C2.56667 15.1667 4.25833 13.9792 6.175 13.1875C8.09167 12.3958 10.0333 12 12 12C13.9667 12 15.9042 12.3958 17.8125 13.1875C19.7208 13.9792 21.4167 15.1667 22.9 16.75C23.1 16.95 23.2 17.1833 23.2 17.45C23.2 17.7167 23.1 17.95 22.9 18.15L20.6 20.4C20.4167 20.5833 20.2042 20.6833 19.9625 20.7C19.7208 20.7167 19.5 20.65 19.3 20.5L16.4 18.3C16.2667 18.2 16.1667 18.0833 16.1 17.95C16.0333 17.8167 16 17.6667 16 17.5V14.65C15.3667 14.45 14.7167 14.2917 14.05 14.175C13.3833 14.0583 12.7 14 12 14C11.3 14 10.6167 14.0583 9.95 14.175C9.28333 14.2917 8.63333 14.45 8 14.65V17.5C8 17.6667 7.96667 17.8167 7.9 17.95C7.83333 18.0833 7.73333 18.2 7.6 18.3L4.7 20.5C4.5 20.65 4.27917 20.7167 4.0375 20.7C3.79583 20.6833 3.58333 20.5833 3.4 20.4ZM6 15.35C5.51667 15.6 5.05 15.8875 4.6 16.2125C4.15 16.5375 3.68333 16.9 3.2 17.3L4.2 18.3L6 16.9V15.35ZM18 15.4V16.9L19.8 18.3L20.8 17.35C20.3167 16.9167 19.85 16.5417 19.4 16.225C18.95 15.9083 18.4833 15.6333 18 15.4ZM11.95 11.35L7 6.4V9H5V3H11V5H8.4L11.925 8.525L17.575 2.875L19 4.3L11.95 11.35Z" fill="currentColor"/>
</svg>
