<svg width="22" height="14" viewBox="0 0 22 14" fill="currentColor" xmlns="http://www.w3.org/2000/svg">
<path d="M5 5C4.45 5 3.97917 4.80417 3.5875 4.4125C3.19583 4.02083 3 3.55 3 3C3 2.45 3.19583 1.97917 3.5875 1.5875C3.97917 1.19583 4.45 1 5 1C5.55 1 6.02083 1.19583 6.4125 1.5875C6.80417 1.97917 7 2.45 7 3C7 3.55 6.80417 4.02083 6.4125 4.4125C6.02083 4.80417 5.55 5 5 5ZM17 5C16.45 5 15.9792 4.80417 15.5875 4.4125C15.1958 4.02083 15 3.55 15 3C15 2.45 15.1958 1.97917 15.5875 1.5875C15.9792 1.19583 16.45 1 17 1C17.55 1 18.0208 1.19583 18.4125 1.5875C18.8042 1.97917 19 2.45 19 3C19 3.55 18.8042 4.02083 18.4125 4.4125C18.0208 4.80417 17.55 5 17 5Z" stroke="currentColor" stroke-width="1.5"/>
<path d="M1 11.6583V13H9V11.6583C9 10.725 8.89167 9.86945 8.675 9.09167C8.45833 8.31389 8.15833 7.73056 7.775 7.34167C7.34167 6.91389 6.89583 6.58333 6.4375 6.35C5.97917 6.11667 5.5 6 5 6C4.5 6 4.02083 6.11667 3.5625 6.35C3.10417 6.58333 2.65833 6.91389 2.225 7.34167C1.84167 7.73056 1.54167 8.31389 1.325 9.09167C1.10833 9.86945 1 10.725 1 11.6583Z" stroke="currentColor" stroke-width="1.5"/>
<path d="M8 5L9.2 6L9.62 5.65L9.14 5.25H12.86L12.38 5.65L12.8 6L14 5L12.8 4L12.38 4.35L12.86 4.75H9.14L9.62 4.35L9.2 4L8 5Z" fill="currentColor"/>
<path d="M13 11.6583V13H21V11.6583C21 10.725 20.8917 9.86945 20.675 9.09167C20.4583 8.31389 20.1583 7.73056 19.775 7.34167C19.3417 6.91389 18.8958 6.58333 18.4375 6.35C17.9792 6.11667 17.5 6 17 6C16.5 6 16.0208 6.11667 15.5625 6.35C15.1042 6.58333 14.6583 6.91389 14.225 7.34167C13.8417 7.73056 13.5417 8.31389 13.325 9.09167C13.1083 9.86945 13 10.725 13 11.6583Z" stroke="currentColor" stroke-width="1.5"/>
</svg>
