<svg id="mergedIcon" xmlns="http://www.w3.org/2000/svg" height="24px" viewBox="0 -960 960 960" width="24px" fill="#2fc522">
                <!-- Phone handset base -->
                <path d="M798-120q-125 0-247-54.5T329-329Q229-429 174.5-551T120-798q0-18 12-30t30-12h162q14 0 25 9.5t13 22.5l26 140q2 16-1 27t-11 19l-97 98q20 37 47.5 71.5T387-386q31 31 65 57.5t72 48.5l94-94q9-9 23.5-13.5T670-390l138 28q14 4 23 14.5t9 23.5v162q0 18-12 30t-30 12Z"/>
                
                <!-- Circular arrows overlay (redial symbol) - scaled down and moved up -->
                <g opacity="0.85" transform="translate(380, -420) scale(0.5)">
                    <!-- Left arrow -->
                    <path d="M204-318q-22-38-33-78t-11-82q0-134 93-228t227-94h7l-64-64 56-56 160 160-160 160-56-56 64-64h-7q-100 0-170 70.5T240-478q0 26 6 51t18 49l-60 60Z"/>
                    <!-- Right arrow -->
                    <path d="M481-40 321-200l160-160 56 56-64 64h7q100 0 170-70.5T720-482q0-26-6-51t-18-49l60-60q22 38 33 78t11 82q0 134-93 228t-227 94h-7l64 64-56 56Z"/>
                </g>
            </svg>