<svg width="12" height="12" viewBox="0 0 12 12" fill="currentColor" xmlns="http://www.w3.org/2000/svg">
<path d="M10.0833 6C10.0833 4.8625 9.68715 3.89757 8.89479 3.10521C8.10243 2.31285 7.1375 1.91667 6 1.91667V0.75C6.72917 0.75 7.41215 0.888542 8.04896 1.16563C8.68576 1.44271 9.23993 1.81701 9.71146 2.28854C10.183 2.76007 10.5573 3.31424 10.8344 3.95104C11.1115 4.58785 11.25 5.27083 11.25 6H10.0833ZM7.75 6C7.75 5.51389 7.57986 5.10069 7.23958 4.76042C6.89931 4.42014 6.48611 4.25 6 4.25V3.08333C6.80694 3.08333 7.49479 3.36771 8.06354 3.93646C8.63229 4.50521 8.91667 5.19306 8.91667 6H7.75ZM10.6375 11.25C9.42222 11.25 8.22153 10.9851 7.03542 10.4552C5.84931 9.92535 4.77014 9.17431 3.79792 8.20208C2.82569 7.22986 2.07465 6.15069 1.54479 4.96458C1.01493 3.77847 0.75 2.57778 0.75 1.3625C0.75 1.1875 0.808333 1.04167 0.925 0.925C1.04167 0.808333 1.1875 0.75 1.3625 0.75H3.725C3.86111 0.75 3.98264 0.796181 4.08958 0.888542C4.19653 0.980903 4.25972 1.09028 4.27917 1.21667L4.65833 3.25833C4.67778 3.41389 4.67292 3.54514 4.64375 3.65208C4.61458 3.75903 4.56111 3.85139 4.48333 3.92917L3.06875 5.35833C3.26319 5.71806 3.4941 6.06563 3.76146 6.40104C4.02882 6.73646 4.32292 7.05972 4.64375 7.37083C4.94514 7.67222 5.26111 7.95174 5.59167 8.20937C5.92222 8.46701 6.27222 8.70278 6.64167 8.91667L8.0125 7.54583C8.1 7.45833 8.21424 7.39271 8.35521 7.34896C8.49618 7.30521 8.63472 7.29306 8.77083 7.3125L10.7833 7.72083C10.9194 7.75972 11.0312 7.83021 11.1187 7.93229C11.2063 8.03438 11.25 8.14861 11.25 8.275V10.6375C11.25 10.8125 11.1917 10.9583 11.075 11.075C10.9583 11.1917 10.8125 11.25 10.6375 11.25ZM2.51458 4.25L3.47708 3.2875L3.22917 1.91667H1.93125C1.97986 2.31528 2.04792 2.70903 2.13542 3.09792C2.22292 3.48681 2.34931 3.87083 2.51458 4.25ZM7.73542 9.47083C8.11458 9.63611 8.50104 9.76736 8.89479 9.86458C9.28854 9.96181 9.68472 10.025 10.0833 10.0542V8.77083L8.7125 8.49375L7.73542 9.47083Z" fill="currentColor"/>
</svg>
