<svg width="19" height="19" viewBox="0 0 19 19" fill="currentColor" xmlns="http://www.w3.org/2000/svg">
<path d="M8.23159 16C9.97721 15.9996 11.6725 15.4054 13.0476 14.312L17.3709 18.708L18.7615 17.294L14.4382 12.898C15.5141 11.4997 16.0988 9.77544 16.0993 8C16.0993 3.589 12.5696 0 8.23159 0C3.89356 0 0.363922 3.589 0.363922 8C0.363922 12.411 3.89356 16 8.23159 16ZM8.23159 2C11.4859 2 14.1323 4.691 14.1323 8C14.1323 11.309 11.4859 14 8.23159 14C4.97733 14 2.33084 11.309 2.33084 8C2.33084 4.691 4.97733 2 8.23159 2Z" fill="currentColor"/>
</svg>
