<svg width="71" height="79" viewBox="0 0 71 79" fill="none" xmlns="http://www.w3.org/2000/svg">
<path d="M4.99722 0C2.75417 0 0.918945 1.85625 0.918945 4.125V61.875C0.918945 64.1438 2.75417 66 4.99722 66H45.78C48.023 66 49.8583 64.1438 49.8583 61.875V16.5L33.5452 0H4.99722Z" fill="#E2E5E7"/>
<path d="M37.6232 16.5H49.858L33.5449 0V12.375C33.5449 14.6438 35.3801 16.5 37.6232 16.5Z" fill="#B0B7BD"/>
<path d="M49.8579 28.875L37.623 16.5H49.8579V28.875Z" fill="#CAD1D8"/>
<path d="M48.8799 35.9277C37.1642 35.9277 27.6348 45.5872 27.6348 57.4641C27.6348 69.3404 37.1642 79.0004 48.8799 79.0004C60.5962 79.0004 70.1256 69.3404 70.1256 57.4641C70.1256 45.5872 60.5962 35.9277 48.8799 35.9277ZM60.2411 57.7881C59.9744 58.0408 59.6185 58.1672 59.2808 58.1672C58.9075 58.1672 58.5341 58.0047 58.2493 57.7161L50.3203 49.0656V69.6468C50.3203 70.4402 49.6803 71.089 48.8981 71.089C48.116 71.089 47.476 70.4402 47.476 69.6468V49.0479L39.5114 57.6985C38.9779 58.2752 38.0531 58.3113 37.4842 57.7703C36.9157 57.2297 36.8796 56.3105 37.4131 55.7338L47.8313 44.3976C48.0979 44.1095 48.4713 43.9471 48.88 43.9471C49.2894 43.9471 49.6447 44.1096 49.9295 44.3976L60.3477 55.7336C60.8456 56.3289 60.8095 57.248 60.2411 57.7883V57.7881Z" fill="#FF5200"/>
</svg>
