<svg width="12" height="6" viewBox="0 0 12 6" fill="currentColor" xmlns="http://www.w3.org/2000/svg">
<path d="M2.79199 5.33398C2.06283 5.33398 1.44303 5.07878 0.932617 4.56836C0.422201 4.05794 0.166992 3.43815 0.166992 2.70898C0.166992 1.97982 0.422201 1.36003 0.932617 0.849609C1.44303 0.339193 2.06283 0.0839844 2.79199 0.0839844C3.52116 0.0839844 4.14095 0.339193 4.65137 0.849609C5.16178 1.36003 5.41699 1.97982 5.41699 2.70898C5.41699 2.97148 5.3781 3.22426 5.30033 3.46732C5.22255 3.71037 5.1156 3.94371 4.97949 4.16732H7.02116C6.88505 3.94371 6.7781 3.71037 6.70033 3.46732C6.62255 3.22426 6.58366 2.97148 6.58366 2.70898C6.58366 1.97982 6.83887 1.36003 7.34928 0.849609C7.8597 0.339193 8.47949 0.0839844 9.20866 0.0839844C9.93783 0.0839844 10.5576 0.339193 11.068 0.849609C11.5785 1.36003 11.8337 1.97982 11.8337 2.70898C11.8337 3.43815 11.5785 4.05794 11.068 4.56836C10.5576 5.07878 9.93783 5.33398 9.20866 5.33398H2.79199ZM2.79199 4.16732C3.20033 4.16732 3.54546 4.02635 3.82741 3.7444C4.10935 3.46246 4.25033 3.11732 4.25033 2.70898C4.25033 2.30065 4.10935 1.95551 3.82741 1.67357C3.54546 1.39162 3.20033 1.25065 2.79199 1.25065C2.38366 1.25065 2.03852 1.39162 1.75658 1.67357C1.47463 1.95551 1.33366 2.30065 1.33366 2.70898C1.33366 3.11732 1.47463 3.46246 1.75658 3.7444C2.03852 4.02635 2.38366 4.16732 2.79199 4.16732ZM9.20866 4.16732C9.61699 4.16732 9.96213 4.02635 10.2441 3.7444C10.526 3.46246 10.667 3.11732 10.667 2.70898C10.667 2.30065 10.526 1.95551 10.2441 1.67357C9.96213 1.39162 9.61699 1.25065 9.20866 1.25065C8.80033 1.25065 8.45519 1.39162 8.17324 1.67357C7.8913 1.95551 7.75033 2.30065 7.75033 2.70898C7.75033 3.11732 7.8913 3.46246 8.17324 3.7444C8.45519 4.02635 8.80033 4.16732 9.20866 4.16732Z" fill="currentColor"/>
</svg>
