<svg width="24" height="19" viewBox="0 0 24 19" fill="currentColor" xmlns="http://www.w3.org/2000/svg">
<path d="M3.4 18.4L1.1 16.15C0.900003 15.95 0.800003 15.7167 0.800003 15.45C0.800003 15.1833 0.900003 14.95 1.1 14.75C2.56667 13.1667 4.25834 11.9792 6.175 11.1875C8.09167 10.3958 10.0333 10 12 10C13.9667 10 15.9042 10.3958 17.8125 11.1875C19.7208 11.9792 21.4167 13.1667 22.9 14.75C23.1 14.95 23.2 15.1833 23.2 15.45C23.2 15.7167 23.1 15.95 22.9 16.15L20.6 18.4C20.4167 18.5833 20.2042 18.6833 19.9625 18.7C19.7208 18.7167 19.5 18.65 19.3 18.5L16.4 16.3C16.2667 16.2 16.1667 16.0833 16.1 15.95C16.0333 15.8167 16 15.6667 16 15.5V12.65C15.3667 12.45 14.7167 12.2917 14.05 12.175C13.3833 12.0583 12.7 12 12 12C11.3 12 10.6167 12.0583 9.95 12.175C9.28334 12.2917 8.63334 12.45 8 12.65V15.5C8 15.6667 7.96667 15.8167 7.9 15.95C7.83334 16.0833 7.73334 16.2 7.6 16.3L4.7 18.5C4.5 18.65 4.27917 18.7167 4.0375 18.7C3.79584 18.6833 3.58334 18.5833 3.4 18.4ZM6 13.35C5.51667 13.6 5.05 13.8875 4.6 14.2125C4.15 14.5375 3.68334 14.9 3.2 15.3L4.2 16.3L6 14.9V13.35ZM18 13.4V14.9L19.8 16.3L20.8 15.35C20.3167 14.9167 19.85 14.5417 19.4 14.225C18.95 13.9083 18.4833 13.6333 18 13.4ZM11 5V0H13V5H11ZM17.6 7.85L16.2 6.4L19.75 2.85L21.15 4.3L17.6 7.85ZM6.4 7.85L2.85 4.3L4.25 2.85L7.8 6.4L6.4 7.85Z" fill="currentColor"/>
</svg>
