<svg width="32" height="32" viewBox="0 0 32 32" fill="none" xmlns="http://www.w3.org/2000/svg">
<g clip-path="url(#clip0_2485_3824)">
<path opacity="0.199033" fill-rule="evenodd" clip-rule="evenodd" d="M16 32C24.8366 32 32 24.8366 32 16C32 7.16344 24.8366 0 16 0C7.16344 0 0 7.16344 0 16C0 24.8366 7.16344 32 16 32Z" fill="#232324"/>
<path fill-rule="evenodd" clip-rule="evenodd" d="M16.0004 16.9437L12.4716 20.4724C12.438 20.5038 12.4044 20.5332 12.3659 20.5585C12.2896 20.6085 12.2033 20.6425 12.1135 20.658C12.0736 20.6649 12.0633 20.6646 12.023 20.6673C12.0078 20.6673 11.9926 20.6673 11.9774 20.6673C11.9371 20.6646 11.9268 20.6649 11.8869 20.658C11.8121 20.6451 11.7396 20.6193 11.6735 20.5821C11.6205 20.5524 11.5717 20.5154 11.5288 20.4724C11.3991 20.3428 11.3276 20.1615 11.3339 19.9783C11.336 19.9176 11.3464 19.8572 11.3647 19.7993C11.3877 19.727 11.4231 19.6587 11.469 19.5982C11.4934 19.5659 11.5012 19.5591 11.5288 19.5296L15.0575 16.0009L11.5288 12.4721C11.5012 12.4425 11.4934 12.4358 11.469 12.4035C11.4231 12.343 11.3877 12.2747 11.3647 12.2024C11.3372 12.1155 11.3277 12.0231 11.337 11.9325C11.3606 11.7031 11.5056 11.4976 11.7139 11.3986C11.7687 11.3725 11.8271 11.354 11.8869 11.3437C11.9617 11.3308 12.0387 11.3308 12.1135 11.3437C12.2183 11.3618 12.3183 11.4052 12.403 11.4695C12.4353 11.4939 12.4421 11.5017 12.4716 11.5293L16.0004 15.058L19.5291 11.5293C19.5587 11.5017 19.5654 11.4939 19.5977 11.4695C19.6582 11.4236 19.7265 11.3882 19.7988 11.3652C19.8857 11.3377 19.9781 11.3282 20.0687 11.3375C20.1442 11.3452 20.2183 11.366 20.2869 11.3986C20.3417 11.4247 20.3929 11.4583 20.4387 11.4982C20.6125 11.6497 20.6967 11.8867 20.6575 12.114C20.6395 12.2188 20.596 12.3188 20.5318 12.4035C20.5073 12.4358 20.4996 12.4425 20.472 12.4721L16.9432 16.0009L20.472 19.5296C20.4996 19.5591 20.5073 19.5659 20.5318 19.5982C20.5776 19.6587 20.613 19.727 20.636 19.7993C20.6544 19.8572 20.6648 19.9176 20.6668 19.9783C20.6731 20.1615 20.6016 20.3428 20.472 20.4724C20.429 20.5154 20.3802 20.5524 20.3273 20.5821C20.2611 20.6193 20.1886 20.6451 20.1138 20.658C20.0739 20.6649 20.0636 20.6646 20.0233 20.6673C20.0081 20.6673 19.9929 20.6673 19.9778 20.6673C19.9374 20.6646 19.9272 20.6649 19.8873 20.658C19.7975 20.6425 19.7111 20.6085 19.6349 20.5585C19.5963 20.5332 19.5627 20.5038 19.5291 20.4724L16.0004 16.9437Z" fill="white"/>
</g>
<defs>
<clipPath id="clip0_2485_3824">
<rect width="32" height="32" fill="white"/>
</clipPath>
</defs>
</svg>
