<svg width="427" height="531" viewBox="0 0 427 531" fill="none" xmlns="http://www.w3.org/2000/svg">
<line x1="50.6287" y1="3.4416e-08" x2="50.6287" y2="531" stroke="#F1F5F9" stroke-width="1.25747"/>
<line x1="70.6287" y1="3.4416e-08" x2="70.6287" y2="531" stroke="#F1F5F9" stroke-width="1.25747"/>
<line x1="90.6287" y1="3.4416e-08" x2="90.6287" y2="531" stroke="#F1F5F9" stroke-width="1.25747"/>
<line x1="110.629" y1="3.4416e-08" x2="110.629" y2="531" stroke="#F1F5F9" stroke-width="1.25747"/>
<line x1="130.629" y1="3.4416e-08" x2="130.629" y2="531" stroke="#F1F5F9" stroke-width="1.25747"/>
<line x1="150.629" y1="3.4416e-08" x2="150.629" y2="531" stroke="#F1F5F9" stroke-width="1.25747"/>
<line x1="170.629" y1="3.4416e-08" x2="170.629" y2="531" stroke="#F1F5F9" stroke-width="1.25747"/>
<line x1="191.629" y1="3.4416e-08" x2="191.629" y2="531" stroke="#F1F5F9" stroke-width="1.25747"/>
<line x1="211.629" y1="3.4416e-08" x2="211.629" y2="531" stroke="#F1F5F9" stroke-width="1.25747"/>
<line x1="231.629" y1="3.4416e-08" x2="231.629" y2="531" stroke="#F1F5F9" stroke-width="1.25747"/>
<line x1="251.629" y1="3.4416e-08" x2="251.629" y2="531" stroke="#F1F5F9" stroke-width="1.25747"/>
<line x1="271.629" y1="3.4416e-08" x2="271.629" y2="531" stroke="#F1F5F9" stroke-width="1.25747"/>
<line x1="291.629" y1="3.4416e-08" x2="291.629" y2="531" stroke="#F1F5F9" stroke-width="1.25747"/>
<line x1="311.629" y1="3.4416e-08" x2="311.629" y2="531" stroke="#F1F5F9" stroke-width="1.25747"/>
<line x1="331.629" y1="3.4416e-08" x2="331.629" y2="531" stroke="#F1F5F9" stroke-width="1.25747"/>
<line x1="352.629" y1="3.4416e-08" x2="352.629" y2="531" stroke="#F1F5F9" stroke-width="1.25747"/>
<line x1="372.629" y1="3.4416e-08" x2="372.629" y2="531" stroke="#F1F5F9" stroke-width="1.25747"/>
<line x1="392.629" y1="3.4416e-08" x2="392.629" y2="531" stroke="#F1F5F9" stroke-width="1.25747"/>
<line x1="412.629" y1="3.4416e-08" x2="412.629" y2="531" stroke="#F1F5F9" stroke-width="1.25747"/>
<line x1="426.975" y1="161.615" x2="37.1585" y2="161.615" stroke="#F1F5F9" stroke-width="1.25747"/>
<line x1="426.975" y1="181.734" x2="37.1585" y2="181.734" stroke="#F1F5F9" stroke-width="1.25747"/>
<line x1="426.975" y1="201.853" x2="37.1585" y2="201.853" stroke="#F1F5F9" stroke-width="1.25747"/>
<line x1="426.975" y1="221.972" x2="37.1585" y2="221.972" stroke="#F1F5F9" stroke-width="1.25747"/>
<line x1="426.975" y1="242.094" x2="37.1585" y2="242.094" stroke="#F1F5F9" stroke-width="1.25747"/>
<line x1="426.975" y1="262.213" x2="37.1585" y2="262.213" stroke="#F1F5F9" stroke-width="1.25747"/>
<line x1="426.975" y1="282.332" x2="37.1585" y2="282.332" stroke="#F1F5F9" stroke-width="1.25747"/>
<line x1="426.975" y1="302.451" x2="23.3263" y2="302.451" stroke="#F1F5F9" stroke-width="1.25747"/>
<line x1="426.975" y1="0.658032" x2="37.1585" y2="0.657995" stroke="#F1F5F9" stroke-width="1.25747"/>
<line x1="426.975" y1="20.7772" x2="37.1585" y2="20.7771" stroke="#F1F5F9" stroke-width="1.25747"/>
<line x1="426.975" y1="40.8983" x2="37.1585" y2="40.8982" stroke="#F1F5F9" stroke-width="1.25747"/>
<line x1="426.975" y1="61.0174" x2="37.1585" y2="61.0174" stroke="#F1F5F9" stroke-width="1.25747"/>
<line x1="426.975" y1="81.1365" x2="37.1585" y2="81.1365" stroke="#F1F5F9" stroke-width="1.25747"/>
<line x1="426.975" y1="101.256" x2="37.1585" y2="101.256" stroke="#F1F5F9" stroke-width="1.25747"/>
<line x1="426.975" y1="121.375" x2="37.1585" y2="121.375" stroke="#F1F5F9" stroke-width="1.25747"/>
<line x1="426.975" y1="141.496" x2="37.1585" y2="141.496" stroke="#F1F5F9" stroke-width="1.25747"/>
<line x1="426.975" y1="322.57" x2="23.3263" y2="322.57" stroke="#F1F5F9" stroke-width="1.25747"/>
<line x1="426.975" y1="342.691" x2="37.1585" y2="342.691" stroke="#F1F5F9" stroke-width="1.25747"/>
<line x1="426.975" y1="362.81" x2="37.1585" y2="362.81" stroke="#F1F5F9" stroke-width="1.25747"/>
<line x1="426.975" y1="382.93" x2="37.1585" y2="382.929" stroke="#F1F5F9" stroke-width="1.25747"/>
<line x1="426.975" y1="403.049" x2="13.2666" y2="403.049" stroke="#F1F5F9" stroke-width="1.25747"/>
<line x1="426.975" y1="423.168" x2="13.2666" y2="423.168" stroke="#F1F5F9" stroke-width="1.25747"/>
<line x1="426.975" y1="443.289" x2="0.691864" y2="443.289" stroke="#F1F5F9" stroke-width="1.25747"/>
<line x1="426.975" y1="463.408" x2="0.691864" y2="463.408" stroke="#F1F5F9" stroke-width="1.25747"/>
<line x1="426.975" y1="483.527" x2="37.1585" y2="483.527" stroke="#F1F5F9" stroke-width="1.25747"/>
<line x1="426.975" y1="503.646" x2="37.1585" y2="503.646" stroke="#F1F5F9" stroke-width="1.25747"/>
<line x1="426.975" y1="523.765" x2="37.1585" y2="523.765" stroke="#F1F5F9" stroke-width="1.25747"/>
</svg>
