<svg width="16" height="16" viewBox="0 0 16 16" fill="none" xmlns="http://www.w3.org/2000/svg">
<path d="M1.33496 14.6663L2.27642 11.243C1.5467 9.98273 1.25501 8.51804 1.44655 7.07599C1.6381 5.63393 2.30219 4.29506 3.33587 3.26692C4.36955 2.23879 5.71509 1.57882 7.16388 1.38933C8.61267 1.19985 10.0838 1.49143 11.3492 2.21888C12.6146 2.94632 13.6035 4.06899 14.1628 5.41285C14.722 6.75672 14.8203 8.24669 14.4424 9.65181C14.0644 11.0569 13.2314 12.2987 12.0724 13.1846C10.9135 14.0705 9.49327 14.551 8.03203 14.5518C6.92322 14.5539 5.83171 14.2781 4.85822 13.7496L1.33496 14.6663ZM5.01856 12.5526L5.22411 12.6713C6.0719 13.1725 7.0398 13.4369 8.02586 13.4366C9.24767 13.4343 10.4341 13.0282 11.3989 12.2818C12.3636 11.5355 13.0519 10.4912 13.3557 9.31317C13.6595 8.13511 13.5616 6.88996 13.0773 5.77331C12.5931 4.65666 11.7499 3.73179 10.6802 3.14398C9.61059 2.55618 8.37509 2.33873 7.16782 2.52582C5.96055 2.7129 4.84991 3.29391 4.01037 4.17757C3.17084 5.06123 2.64997 6.19748 2.52959 7.40783C2.40921 8.61817 2.69614 9.83403 3.34532 10.8644L3.47687 11.069L2.91775 13.0969L5.01856 12.5526Z" fill="white"/>
<path fill-rule="evenodd" clip-rule="evenodd" d="M11.3036 9.5833C11.2608 9.5089 11.1528 9.46513 10.9899 9.37759C10.827 9.29006 10.0144 8.86332 9.87998 8.80204C9.74556 8.74077 9.6193 8.71232 9.50932 8.89177C9.34654 9.13162 9.17252 9.36243 8.98795 9.5833C8.89223 9.70367 8.79652 9.71461 8.63359 9.62926C8.14911 9.42203 7.70186 9.12583 7.31184 8.7539C6.95226 8.39654 6.64348 7.98437 6.39538 7.53059C6.3604 7.47425 6.34762 7.40531 6.35983 7.33886C6.37204 7.27242 6.40826 7.21388 6.46055 7.17607C6.53591 7.0951 6.62348 6.96817 6.70698 6.87625C6.7743 6.78557 6.8298 6.68544 6.87194 6.57863C6.89408 6.53264 6.90564 6.48161 6.90564 6.42982C6.90564 6.37804 6.89408 6.32701 6.87194 6.28101C6.82917 6.19348 6.50128 5.32249 6.36687 4.96797C6.23245 4.61345 6.08786 4.67035 5.99417 4.67035H5.68054C5.59755 4.67294 5.51592 4.69369 5.44063 4.73131C5.36535 4.76894 5.29799 4.82266 5.24267 4.88919C5.05655 5.07799 4.90929 5.30657 4.81038 5.56024C4.71146 5.8139 4.66308 6.08701 4.66836 6.36198C4.66836 7.23734 5.25489 8.07112 5.33636 8.19148C5.41782 8.31184 6.49721 10.091 8.14481 10.8569C8.45233 10.997 8.75578 11.1217 9.08367 11.229C9.41876 11.3385 9.77302 11.3625 10.1183 11.299C10.4339 11.2465 11.0897 10.8613 11.2282 10.4608C11.3367 10.1836 11.363 9.87718 11.3036 9.5833Z" fill="white"/>
</svg>
