<svg version="1.1" id="Layer_1" xmlns:x="ns_extend;" xmlns:i="ns_ai;" xmlns:graph="ns_graphs;" xmlns="http://www.w3.org/2000/svg" xmlns:xlink="http://www.w3.org/1999/xlink" x="0px" y="0px" viewBox="0 0 909.6 166" style="enable-background:new 0 0 909.6 166;" xml:space="preserve">
 <style type="text/css">
  .st0{fill:#0C9AFC;}
	.st1{fill:#0C293D;}
 </style>
 <metadata>
  <sfw xmlns="ns_sfw;">
   <slices>
   </slices>
   <sliceSourceBounds bottomLeftOrigin="true" height="166" width="909.6" x="141.5" y="337.9">
   </sliceSourceBounds>
  </sfw>
 </metadata>
 <g>
  <polygon class="st0" points="0,0 0,68.5 68.6,68.5 68.6,137.9 136.6,137.9 136.6,0 	">
  </polygon>
  <g>
   <path class="st1" d="M158,42c-5.5,0-5.5-8.6,0-8.6h9.9c1.9,0,3.4,1.5,3.4,3.3v92.6h3.8c5.5,0,5.5,8.6,0,8.6h-16.5
			c-5.5,0-5.5-8.6,0-8.6h3.8V42H158z">
   </path>
   <path class="st1" d="M219.1,138.5c-21.3,0-36.8-16.3-36.8-36.5c0-19.8,15.5-36.9,35.1-36.9c19.3,0,31.8,16.3,32.4,36.2
			c0,2.5-1.2,5.2-4.3,5.2H191c2.2,13.9,14,23.3,28,23.3c4.9,0,12.3-1.2,16.7-3.4c3.3-1.6,5.2-0.3,6,1.2c1,1.9,0.5,4.5-1.9,5.9
			C234.3,136.8,225.3,138.5,219.1,138.5z M191,97.9h49.9c-2.2-13.6-10.1-24.1-23.6-24.1C204,73.8,193,84.9,191,97.9z">
   </path>
   <path class="st1" d="M317,137.9c-1.8,0-3.3-1.5-3.3-3.3v-8.8c-5.9,8.2-15.2,12.8-25.8,12.8c-20.3,0-35.8-16.5-35.8-36.5
			c0-19.8,15.4-36.2,35-36.2c19.2,0,26.6,14.3,26.6,14.3V69.3c0-1.9,1.5-3.4,3.3-3.4h7.3c5.5,0,5.5,8.6,0,8.6h-1.9v54.7h1.9
			c5.5,0,5.5,8.6,0,8.6H317z M287.4,74.5c-15,0-26.7,12.5-26.7,27.4c0,14.7,10.1,28,26.9,28c8.9,0.1,26.9-6.9,26.9-27.6
			C314.4,87.8,303.2,74.5,287.4,74.5z">
   </path>
   <path class="st1" d="M397.7,137.9c-1.8,0-3.3-1.5-3.3-3.3v-8.8c-5.9,8.2-15.2,12.8-25.8,12.8c-20.3,0-35.8-16.5-35.8-36.5
			c0-19.8,15.4-36.2,35-36.2c19.2,0,26.6,14.3,26.6,14.3V41.8h-1.9c-5.5,0-5.5-8.5,0-8.5h7.3c1.8,0,3.3,1.5,3.3,3.4v92.4h1.9
			c5.5,0,5.5,8.6,0,8.6H397.7z M368,74.4c-15,0-26.5,12.6-26.7,27.6c-0.3,14.7,10.1,28,26.9,28c8.9,0.1,26.2-6.9,26.2-27.6
			C394.4,87.8,383.8,74.4,368,74.4z">
   </path>
   <path class="st0" d="M461.6,65.3c2.1,0,4.3,1.1,4.3,3.8v16.2c-0.1,2.2-2.1,3.7-4.1,3.7c-2.5,0-4.3-1.6-4.3-4
			c0-8.2-7.7-12.2-15.5-12.2c-6.9,0-15.5,3.8-15.5,11.5c0,6.9,6.7,10.3,19.3,13.3c11.2,2.7,22.5,5.6,22.5,19.2
			c0,13.3-12.9,21-24.7,21c-6.9,0-14.3-2.7-18.2-7.3v3.4c0,2.7-2.2,3.8-4.3,3.8c-2.1,0-4.1-1.1-4.1-3.8v-17.1c0-2.5,2.2-4.3,4.4-4.3
			c2.7,0,4.7,1.9,4.7,4.5c0,9.5,9.2,12.9,17.4,12.8c7.1,0,16.3-4.8,16.3-13c0-8.2-9.2-9.7-15.9-11.2c-17.7-3.8-25.6-10.2-25.6-21.3
			c0-12.5,11.8-19.2,22.8-19.2c7,0,13.2,3,16.5,7.1v-3.2C457.5,66.4,459.5,65.3,461.6,65.3z">
   </path>
   <path class="st0" d="M547.2,65.9c5.5,0,5.5,8.6,0,8.6h-1.9v83h1.9c5.5,0,5.5,8.5,0,8.5h-7.3c-1.8,0-3.3-1.5-3.3-3.4v-39
			c0,0-7.4,14.3-26.6,14.3c-19.6,0-35-16.5-35-36.2c0-20,15.5-36.5,35.8-36.5c10.6,0,19.9,5.3,25.8,13.6v-9.6c0-1.8,1.5-3.3,3.3-3.3
			H547.2z M510.4,73.8c-16.7,0-27.2,13.3-26.9,28c0.3,15,11.8,27.6,26.7,27.6c15.8,0,26.3-13.4,26.3-28
			C536.6,80.7,519.3,73.7,510.4,73.8z">
   </path>
   <path class="st0" d="M614.5,74.5c-5.5,0-5.5-8.6,0-8.6h8.1c1.9,0,3.4,1.5,3.4,3.3v59.9h3.3c5.5,0,5.5,8.8,0,8.8h-8.5
			c-1.9,0-3.4-1.5-3.4-3.4v-7.7c-5.5,8-15.1,11.1-24.3,11.1c-20.6,0-30.7-13.4-30.7-31.4v-32h-2.9c-5.5,0-5.5-8.6,0-8.6h8.1
			c1.9,0,3.4,1.5,3.4,3.3v37.3c0,13.2,7,22.8,22.1,22.8c13.6,0,24.3-7.7,24.3-24.4V74.5H614.5z">
   </path>
   <path class="st0" d="M703.4,137.9c-1.8,0-3.3-1.5-3.3-3.3v-8.8c-5.9,8.2-15.2,12.8-25.8,12.8c-20.3,0-35.8-16.5-35.8-36.5
			c0-19.8,15.4-36.2,35-36.2c19.2,0,26.6,14.3,26.6,14.3V69.3c0-1.9,1.5-3.4,3.3-3.4h7.3c5.5,0,5.5,8.6,0,8.6h-1.9v54.7h1.9
			c5.5,0,5.5,8.6,0,8.6H703.4z M673.8,74.5c-15,0-26.7,12.5-26.7,27.4c0,14.7,10.2,28,26.9,28c8.9,0.1,26.9-6.9,26.9-27.6
			C700.8,87.8,689.6,74.5,673.8,74.5z">
   </path>
   <path class="st0" d="M735.9,134.6c0,1.8-1.5,3.3-3.3,3.3h-7.1c-5.6,0-5.6-8.6,0-8.6h1.8V74.4h-1.8c-5.6,0-5.6-8.5,0-8.5h7.1
			c1.8,0,3.3,1.5,3.3,3.4v8.8c6.3-9.3,15.1-12.2,25.5-12.2c2.3-0.1,4.5,1.2,4.5,4.1c0,4.4-4.5,4.4-4.5,4.4H761
			c-11.1,0-25.1,6.2-25.1,21.4V134.6z">
   </path>
   <path class="st0" d="M800.3,138.5c-21.3,0-36.8-16.3-36.8-36.5c0-19.8,15.5-36.9,35.1-36.9c19.3,0,31.8,16.3,32.4,36.2
			c0,2.5-1.2,5.2-4.3,5.2h-54.6c2.2,13.9,14,23.3,28,23.3c4.9,0,12.3-1.2,16.7-3.4c3.3-1.6,5.2-0.3,6,1.2c1,1.9,0.5,4.5-1.9,5.9
			C815.5,136.8,806.4,138.5,800.3,138.5z M772.1,97.9h49.9c-2.2-13.6-10.1-24.1-23.6-24.1C785.2,73.8,774.2,84.9,772.1,97.9z">
   </path>
   <path class="st0" d="M898.2,137.9c-1.8,0-3.3-1.5-3.3-3.3v-8.8c-5.9,8.2-15.2,12.8-25.8,12.8c-20.3,0-35.8-16.5-35.8-36.5
			c0-19.8,15.4-36.2,35-36.2c19.2,0,26.6,14.3,26.6,14.3V41.8H893c-5.5,0-5.5-8.5,0-8.5h7.3c1.8,0,3.3,1.5,3.3,3.4v92.4h1.9
			c5.5,0,5.5,8.6,0,8.6H898.2z M868.6,74.4c-15,0-26.5,12.6-26.7,27.6c-0.3,14.7,10.2,28,26.9,28c8.9,0.1,26.2-6.9,26.2-27.6
			C894.9,87.8,884.3,74.4,868.6,74.4z">
   </path>
  </g>
  <polygon class="st1" points="68.6,137.9 0,137.9 0,68.5 	">
  </polygon>
 </g>
</svg>