<svg width="40" height="40" viewBox="0 0 40 40" fill="none" xmlns="http://www.w3.org/2000/svg">
<path d="M21 19.0001V13.0001H23V15.6001L28 10.6001L29.4 12.0001L24.4 17.0001H27V19.0001H21ZM27.95 29.0001C25.8667 29.0001 23.8083 28.5459 21.775 27.6376C19.7417 26.7293 17.8917 25.4418 16.225 23.7751C14.5583 22.1084 13.2708 20.2584 12.3625 18.2251C11.4542 16.1918 11 14.1334 11 12.0501C11 11.7501 11.1 11.5001 11.3 11.3001C11.5 11.1001 11.75 11.0001 12.05 11.0001H16.1C16.3333 11.0001 16.5417 11.0793 16.725 11.2376C16.9083 11.3959 17.0167 11.5834 17.05 11.8001L17.7 15.3001C17.7333 15.5668 17.725 15.7918 17.675 15.9751C17.625 16.1584 17.5333 16.3168 17.4 16.4501L14.975 18.9001C15.3083 19.5168 15.7042 20.1126 16.1625 20.6876C16.6208 21.2626 17.125 21.8168 17.675 22.3501C18.1917 22.8668 18.7333 23.3459 19.3 23.7876C19.8667 24.2293 20.4667 24.6334 21.1 25.0001L23.45 22.6501C23.6 22.5001 23.7958 22.3876 24.0375 22.3126C24.2792 22.2376 24.5167 22.2168 24.75 22.2501L28.2 22.9501C28.4333 23.0168 28.625 23.1376 28.775 23.3126C28.925 23.4876 29 23.6834 29 23.9001V27.9501C29 28.2501 28.9 28.5001 28.7 28.7001C28.5 28.9001 28.25 29.0001 27.95 29.0001ZM14.025 17.0001L15.675 15.3501L15.25 13.0001H13.025C13.1083 13.6834 13.225 14.3584 13.375 15.0251C13.525 15.6918 13.7417 16.3501 14.025 17.0001ZM22.975 25.9501C23.625 26.2334 24.2875 26.4584 24.9625 26.6251C25.6375 26.7918 26.3167 26.9001 27 26.9501V24.7501L24.65 24.2751L22.975 25.9501Z" fill="#2A2A2A"/>
</svg>
