<svg width="24" height="24" viewBox="0 0 24 24" fill="none" xmlns="http://www.w3.org/2000/svg">
<g clip-path="url(#clip0_3782_2698)">
<path fill-rule="evenodd" clip-rule="evenodd" d="M20.503 3.48756C18.2472 1.23972 15.2471 0.00117083 12.0504 0C5.46344 0 0.102588 5.33456 0.100282 11.8917C0.0991529 13.9878 0.649788 16.0338 1.69548 17.8369L0 24L6.33492 22.3463C8.08019 23.2941 10.0455 23.793 12.0453 23.7936H12.0504C18.6362 23.7936 23.9977 18.4585 24 11.9013C24.0011 8.72349 22.7594 5.73601 20.503 3.48812V3.48756ZM12.0504 21.7852H12.0464C10.2644 21.7847 8.51624 21.3079 6.99096 20.4075L6.62828 20.1932L2.86894 21.1745L3.87224 17.5267L3.63614 17.1526C2.64202 15.5788 2.11661 13.7597 2.11774 11.8923C2.12005 6.44249 6.57558 2.00834 12.0544 2.00834C14.7073 2.00951 17.201 3.03881 19.0763 4.90744C20.9517 6.77552 21.9836 9.2595 21.9825 11.9002C21.9801 17.3505 17.5247 21.7847 12.0504 21.7847V21.7852ZM17.4983 14.3825C17.1998 14.2336 15.7319 13.5151 15.4579 13.4159C15.184 13.3166 14.9853 13.2671 14.7864 13.5647C14.5876 13.8624 14.0152 14.5319 13.841 14.7297C13.6668 14.9282 13.4926 14.9527 13.1941 14.8038C12.8956 14.655 11.9335 14.3414 10.7927 13.3292C9.90518 12.5411 9.30579 11.5684 9.13167 11.2706C8.95746 10.973 9.11332 10.8122 9.26226 10.6645C9.39633 10.5311 9.5608 10.3173 9.71035 10.1439C9.85991 9.97052 9.90918 9.84627 10.0088 9.64835C10.1086 9.44987 10.0587 9.27664 9.98428 9.12771C9.90974 8.97892 9.31271 7.51623 9.06344 6.9215C8.82104 6.34217 8.57473 6.42085 8.39195 6.41116C8.21769 6.40259 8.01892 6.4009 7.81953 6.4009C7.62014 6.4009 7.29694 6.47499 7.02306 6.77271C6.74918 7.07029 5.97793 7.78941 5.97793 9.25144C5.97793 10.7136 7.04772 12.1272 7.19727 12.3257C7.34678 12.5241 9.30292 15.5252 12.2979 16.8128C13.0102 17.119 13.5665 17.302 14.0003 17.4389C14.7154 17.6653 15.3663 17.6334 15.8808 17.5569C16.4544 17.4714 17.6473 16.8379 17.896 16.1439C18.1446 15.4499 18.1446 14.8546 18.0702 14.7308C17.9957 14.6071 17.7963 14.5324 17.4978 14.3836L17.4983 14.3825Z" fill="#FF5200"/>
</g>
<defs>
<clipPath id="clip0_3782_2698">
<rect width="24" height="24" fill="white"/>
</clipPath>
</defs>
</svg>
