<svg width="12" height="12" viewBox="0 0 12 12" fill="currentColor" xmlns="http://www.w3.org/2000/svg">
<path d="M1.91667 11.8337C1.59583 11.8337 1.32118 11.7194 1.09271 11.491C0.864236 11.2625 0.75 10.9878 0.75 10.667V2.50033C0.75 2.17949 0.864236 1.90484 1.09271 1.67637C1.32118 1.44789 1.59583 1.33366 1.91667 1.33366H2.5V0.166992H3.66667V1.33366H8.33333V0.166992H9.5V1.33366H10.0833C10.4042 1.33366 10.6788 1.44789 10.9073 1.67637C11.1358 1.90484 11.25 2.17949 11.25 2.50033V10.667C11.25 10.9878 11.1358 11.2625 10.9073 11.491C10.6788 11.7194 10.4042 11.8337 10.0833 11.8337H1.91667ZM1.91667 10.667H10.0833V4.83366H1.91667V10.667ZM1.91667 3.66699H10.0833V2.50033H1.91667V3.66699ZM6 7.16699C5.83472 7.16699 5.69618 7.11109 5.58437 6.99928C5.47257 6.88748 5.41667 6.74894 5.41667 6.58366C5.41667 6.41838 5.47257 6.27984 5.58437 6.16803C5.69618 6.05623 5.83472 6.00033 6 6.00033C6.16528 6.00033 6.30382 6.05623 6.41563 6.16803C6.52743 6.27984 6.58333 6.41838 6.58333 6.58366C6.58333 6.74894 6.52743 6.88748 6.41563 6.99928C6.30382 7.11109 6.16528 7.16699 6 7.16699ZM3.66667 7.16699C3.50139 7.16699 3.36285 7.11109 3.25104 6.99928C3.13924 6.88748 3.08333 6.74894 3.08333 6.58366C3.08333 6.41838 3.13924 6.27984 3.25104 6.16803C3.36285 6.05623 3.50139 6.00033 3.66667 6.00033C3.83194 6.00033 3.97049 6.05623 4.08229 6.16803C4.1941 6.27984 4.25 6.41838 4.25 6.58366C4.25 6.74894 4.1941 6.88748 4.08229 6.99928C3.97049 7.11109 3.83194 7.16699 3.66667 7.16699ZM8.33333 7.16699C8.16806 7.16699 8.02951 7.11109 7.91771 6.99928C7.8059 6.88748 7.75 6.74894 7.75 6.58366C7.75 6.41838 7.8059 6.27984 7.91771 6.16803C8.02951 6.05623 8.16806 6.00033 8.33333 6.00033C8.49861 6.00033 8.63715 6.05623 8.74896 6.16803C8.86076 6.27984 8.91667 6.41838 8.91667 6.58366C8.91667 6.74894 8.86076 6.88748 8.74896 6.99928C8.63715 7.11109 8.49861 7.16699 8.33333 7.16699ZM6 9.50033C5.83472 9.50033 5.69618 9.44442 5.58437 9.33262C5.47257 9.22081 5.41667 9.08227 5.41667 8.91699C5.41667 8.75171 5.47257 8.61317 5.58437 8.50137C5.69618 8.38956 5.83472 8.33366 6 8.33366C6.16528 8.33366 6.30382 8.38956 6.41563 8.50137C6.52743 8.61317 6.58333 8.75171 6.58333 8.91699C6.58333 9.08227 6.52743 9.22081 6.41563 9.33262C6.30382 9.44442 6.16528 9.50033 6 9.50033ZM3.66667 9.50033C3.50139 9.50033 3.36285 9.44442 3.25104 9.33262C3.13924 9.22081 3.08333 9.08227 3.08333 8.91699C3.08333 8.75171 3.13924 8.61317 3.25104 8.50137C3.36285 8.38956 3.50139 8.33366 3.66667 8.33366C3.83194 8.33366 3.97049 8.38956 4.08229 8.50137C4.1941 8.61317 4.25 8.75171 4.25 8.91699C4.25 9.08227 4.1941 9.22081 4.08229 9.33262C3.97049 9.44442 3.83194 9.50033 3.66667 9.50033ZM8.33333 9.50033C8.16806 9.50033 8.02951 9.44442 7.91771 9.33262C7.8059 9.22081 7.75 9.08227 7.75 8.91699C7.75 8.75171 7.8059 8.61317 7.91771 8.50137C8.02951 8.38956 8.16806 8.33366 8.33333 8.33366C8.49861 8.33366 8.63715 8.38956 8.74896 8.50137C8.86076 8.61317 8.91667 8.75171 8.91667 8.91699C8.91667 9.08227 8.86076 9.22081 8.74896 9.33262C8.63715 9.44442 8.49861 9.50033 8.33333 9.50033Z" fill="currentColor"/>
</svg>
