<svg width="10" height="10" viewBox="0 0 10 10" fill="currentColor" xmlns="http://www.w3.org/2000/svg">
<path fill-rule="evenodd" clip-rule="evenodd" d="M5.00037 5.94369L1.47162 9.47244C1.43802 9.50381 1.40438 9.53321 1.36585 9.55848C1.28965 9.60848 1.20328 9.64252 1.11347 9.65802C1.07357 9.66488 1.0633 9.66455 1.02297 9.66732C1.00777 9.66732 0.992601 9.66732 0.977433 9.66732C0.937098 9.66455 0.926831 9.66488 0.88693 9.65802C0.812093 9.64512 0.739623 9.61935 0.673454 9.58215C0.620518 9.55238 0.571716 9.51538 0.528781 9.47244C0.399109 9.34277 0.327639 9.1615 0.333872 8.97826C0.335973 8.91755 0.346373 8.85722 0.36474 8.79931C0.387708 8.72698 0.42311 8.65867 0.468978 8.59817C0.493446 8.5659 0.50118 8.55914 0.528781 8.5296L4.0575 5.00085L0.528781 1.4721C0.50118 1.44253 0.493446 1.4358 0.468978 1.4035C0.42311 1.34303 0.387708 1.27472 0.36474 1.20235C0.337173 1.11548 0.327672 1.02315 0.337006 0.932477C0.360574 0.703067 0.50558 0.497625 0.713855 0.398587C0.768691 0.372519 0.82706 0.353985 0.88693 0.343651C0.961733 0.330784 1.03867 0.330784 1.11347 0.343651C1.21828 0.361752 1.31828 0.405154 1.40302 0.469457C1.43532 0.493925 1.44205 0.501658 1.47162 0.529259L5.00037 4.05798L8.52912 0.529259C8.55866 0.501658 8.56542 0.493925 8.59769 0.469457C8.6582 0.423588 8.7265 0.388187 8.79884 0.365219C8.88571 0.337651 8.97808 0.328151 9.06871 0.337485C9.14422 0.345218 9.21832 0.365986 9.28686 0.398587C9.34169 0.424655 9.39293 0.458256 9.4387 0.498158C9.6125 0.649731 9.69671 0.886675 9.65754 1.11395C9.63947 1.21876 9.59604 1.31876 9.53177 1.4035C9.5073 1.4358 9.49957 1.44253 9.47196 1.4721L5.94321 5.00085L9.47196 8.5296C9.49957 8.55914 9.5073 8.5659 9.53177 8.59817C9.57764 8.65867 9.61304 8.72698 9.636 8.79931C9.65437 8.85722 9.66477 8.91755 9.66684 8.97826C9.67311 9.1615 9.6016 9.34277 9.47196 9.47244C9.42903 9.51538 9.38023 9.55238 9.32729 9.58215C9.26112 9.61935 9.18862 9.64512 9.11382 9.65802C9.07391 9.66488 9.06365 9.66455 9.02331 9.66732C9.00811 9.66732 8.99294 9.66732 8.97778 9.66732C8.93744 9.66455 8.92717 9.66488 8.88727 9.65802C8.79747 9.64252 8.7111 9.60848 8.6349 9.55848C8.59633 9.53321 8.56269 9.50381 8.52912 9.47244L5.00037 5.94369Z" fill="currentColor"/>
</svg>
