<svg width="19" height="19" viewBox="0 0 19 19" fill="currentColor" xmlns="http://www.w3.org/2000/svg">
<path d="M10 8.99961V2.99961H12V5.59961L17 0.599609L18.4 1.99961L13.4 6.99961H16V8.99961H10ZM16.95 18.9996C14.8667 18.9996 12.8083 18.5454 10.775 17.6371C8.74167 16.7288 6.89167 15.4413 5.225 13.7746C3.55833 12.1079 2.27083 10.2579 1.3625 8.22461C0.454167 6.19128 0 4.13294 0 2.04961C0 1.74961 0.1 1.49961 0.3 1.29961C0.5 1.09961 0.75 0.999609 1.05 0.999609H5.1C5.33333 0.999609 5.54167 1.07878 5.725 1.23711C5.90833 1.39544 6.01667 1.58294 6.05 1.79961L6.7 5.29961C6.73333 5.56628 6.725 5.79128 6.675 5.97461C6.625 6.15794 6.53333 6.31628 6.4 6.44961L3.975 8.89961C4.30833 9.51628 4.70417 10.1121 5.1625 10.6871C5.62083 11.2621 6.125 11.8163 6.675 12.3496C7.19167 12.8663 7.73333 13.3454 8.3 13.7871C8.86667 14.2288 9.46667 14.6329 10.1 14.9996L12.45 12.6496C12.6 12.4996 12.7958 12.3871 13.0375 12.3121C13.2792 12.2371 13.5167 12.2163 13.75 12.2496L17.2 12.9496C17.4333 13.0163 17.625 13.1371 17.775 13.3121C17.925 13.4871 18 13.6829 18 13.8996V17.9496C18 18.2496 17.9 18.4996 17.7 18.6996C17.5 18.8996 17.25 18.9996 16.95 18.9996ZM3.025 6.99961L4.675 5.34961L4.25 2.99961H2.025C2.10833 3.68294 2.225 4.35794 2.375 5.02461C2.525 5.69128 2.74167 6.34961 3.025 6.99961ZM11.975 15.9496C12.625 16.2329 13.2875 16.4579 13.9625 16.6246C14.6375 16.7913 15.3167 16.8996 16 16.9496V14.7496L13.65 14.2746L11.975 15.9496Z" fill="currentColor"/>
</svg>
