<svg width="22" height="20" viewBox="0 0 22 20" fill="currentColor" xmlns="http://www.w3.org/2000/svg">
<path d="M22 12H17.425C17.375 11.65 17.2958 11.3083 17.1875 10.975C17.0792 10.6417 16.9417 10.3167 16.775 10H19.925C19.8583 9.88333 19.7833 9.78333 19.7 9.7C19.6167 9.61667 19.5167 9.54167 19.4 9.475C18.9667 9.225 18.4708 9.04167 17.9125 8.925C17.3542 8.80833 16.7167 8.75 16 8.75H15.925C15.5917 8.36667 15.2292 8.03333 14.8375 7.75C14.4458 7.46667 14.0167 7.225 13.55 7.025C13.9333 6.94167 14.3292 6.875 14.7375 6.825C15.1458 6.775 15.5667 6.75 16 6.75C16.8833 6.75 17.7083 6.84167 18.475 7.025C19.2417 7.20833 19.9583 7.475 20.625 7.825C21.0583 8.05833 21.3958 8.40417 21.6375 8.8625C21.8792 9.32083 22 9.84167 22 10.425V12ZM16 6C15.1667 6 14.4583 5.70833 13.875 5.125C13.2917 4.54167 13 3.83333 13 3C13 2.16667 13.2917 1.45833 13.875 0.875C14.4583 0.291667 15.1667 0 16 0C16.8333 0 17.5417 0.291667 18.125 0.875C18.7083 1.45833 19 2.16667 19 3C19 3.83333 18.7083 4.54167 18.125 5.125C17.5417 5.70833 16.8333 6 16 6ZM16 4C16.2833 4 16.5208 3.90417 16.7125 3.7125C16.9042 3.52083 17 3.28333 17 3C17 2.71667 16.9042 2.47917 16.7125 2.2875C16.5208 2.09583 16.2833 2 16 2C15.7167 2 15.4792 2.09583 15.2875 2.2875C15.0958 2.47917 15 2.71667 15 3C15 3.28333 15.0958 3.52083 15.2875 3.7125C15.4792 3.90417 15.7167 4 16 4ZM0 12V10.425C0 9.84167 0.120833 9.32083 0.3625 8.8625C0.604167 8.40417 0.941667 8.05833 1.375 7.825C2.04167 7.475 2.75833 7.20833 3.525 7.025C4.29167 6.84167 5.11667 6.75 6 6.75C6.43333 6.75 6.85417 6.775 7.2625 6.825C7.67083 6.875 8.06667 6.94167 8.45 7.025C7.98333 7.225 7.55417 7.46667 7.1625 7.75C6.77083 8.03333 6.40833 8.36667 6.075 8.75H6C5.28333 8.75 4.64583 8.80833 4.0875 8.925C3.52917 9.04167 3.03333 9.225 2.6 9.475C2.48333 9.54167 2.38333 9.61667 2.3 9.7C2.21667 9.78333 2.14167 9.88333 2.075 10H5.225C5.05833 10.3167 4.92083 10.6417 4.8125 10.975C4.70417 11.3083 4.625 11.65 4.575 12H0ZM6 6C5.16667 6 4.45833 5.70833 3.875 5.125C3.29167 4.54167 3 3.83333 3 3C3 2.16667 3.29167 1.45833 3.875 0.875C4.45833 0.291667 5.16667 0 6 0C6.83333 0 7.54167 0.291667 8.125 0.875C8.70833 1.45833 9 2.16667 9 3C9 3.83333 8.70833 4.54167 8.125 5.125C7.54167 5.70833 6.83333 6 6 6ZM6 4C6.28333 4 6.52083 3.90417 6.7125 3.7125C6.90417 3.52083 7 3.28333 7 3C7 2.71667 6.90417 2.47917 6.7125 2.2875C6.52083 2.09583 6.28333 2 6 2C5.71667 2 5.47917 2.09583 5.2875 2.2875C5.09583 2.47917 5 2.71667 5 3C5 3.28333 5.09583 3.52083 5.2875 3.7125C5.47917 3.90417 5.71667 4 6 4ZM11 15C10.45 15 9.97917 14.8042 9.5875 14.4125C9.19583 14.0208 9 13.55 9 13V10C9 9.45 9.19583 8.97917 9.5875 8.5875C9.97917 8.19583 10.45 8 11 8C11.55 8 12.0208 8.19583 12.4125 8.5875C12.8042 8.97917 13 9.45 13 10V13C13 13.55 12.8042 14.0208 12.4125 14.4125C12.0208 14.8042 11.55 15 11 15ZM10.25 20V17.95C9.05 17.7667 8.04167 17.2083 7.225 16.275C6.40833 15.3417 6 14.25 6 13H7.5C7.5 13.9667 7.84167 14.7917 8.525 15.475C9.20833 16.1583 10.0333 16.5 11 16.5C11.9667 16.5 12.7917 16.1583 13.475 15.475C14.1583 14.7917 14.5 13.9667 14.5 13H16C16 14.25 15.5917 15.3417 14.775 16.275C13.9583 17.2083 12.95 17.7667 11.75 17.95V20H10.25Z" fill="currentColor"/>
</svg>
