<svg width="12" height="12" viewBox="0 0 12 12" fill="currentColor" xmlns="http://www.w3.org/2000/svg">
<path d="M9.9002 11.3492L7.1252 8.57422C6.38353 9.17422 5.57728 9.64505 4.70645 9.98672C3.83561 10.3284 2.94186 10.4992 2.0252 10.4992C1.8252 10.4992 1.6877 10.4492 1.6127 10.3492C1.5377 10.2492 1.5002 10.1242 1.5002 9.97422V7.94922C1.5002 7.83255 1.5377 7.73047 1.6127 7.64297C1.6877 7.55547 1.78353 7.49922 1.9002 7.47422L3.6252 7.12422C3.71686 7.10755 3.83145 7.12005 3.96895 7.16172C4.10645 7.20339 4.20853 7.25755 4.2752 7.32422L5.4502 8.49922C5.6002 8.40755 5.7627 8.30339 5.9377 8.18672C6.1127 8.07005 6.26686 7.95755 6.4002 7.84922L0.700195 2.14922L1.4002 1.44922L10.6002 10.6492L9.9002 11.3492ZM4.5002 8.94922L3.6752 8.12422L2.5002 8.37422V9.47422C2.84186 9.44922 3.17936 9.39089 3.5127 9.29922C3.84603 9.20755 4.1752 9.09089 4.5002 8.94922ZM8.5252 7.14922L7.8252 6.44922C7.9502 6.30755 8.07728 6.14505 8.20645 5.96172C8.33561 5.77839 8.4377 5.60755 8.5127 5.44922L7.3002 4.22422C7.23353 4.15755 7.1877 4.0638 7.1627 3.94297C7.1377 3.82214 7.13353 3.72422 7.1502 3.64922L7.4752 1.89922C7.5002 1.78255 7.55645 1.68672 7.64395 1.61172C7.73145 1.53672 7.83353 1.49922 7.9502 1.49922H9.9752C10.1252 1.49922 10.2502 1.54922 10.3502 1.64922C10.4502 1.74922 10.5002 1.87422 10.5002 2.02422C10.5002 2.94089 10.3252 3.83464 9.9752 4.70547C9.6252 5.5763 9.14186 6.39089 8.5252 7.14922ZM8.9752 4.49922C9.11686 4.17422 9.2252 3.84505 9.3002 3.51172C9.3752 3.17839 9.43353 2.84089 9.4752 2.49922H8.3752L8.1502 3.67422L8.9752 4.49922Z" fill="currentColor"/>
</svg>
