<svg width="24" height="18" viewBox="0 0 24 18" fill="currentColor" xmlns="http://www.w3.org/2000/svg">
<path d="M2 18C1.45 18 0.979167 17.8042 0.5875 17.4125C0.195833 17.0208 0 16.55 0 16V2C0 1.45 0.195833 0.979167 0.5875 0.5875C0.979167 0.195833 1.45 0 2 0H22C22.55 0 23.0208 0.195833 23.4125 0.5875C23.8042 0.979167 24 1.45 24 2V16C24 16.55 23.8042 17.0208 23.4125 17.4125C23.0208 17.8042 22.55 18 22 18H2ZM15.9 16H22V2H2V16H2.1C2.8 14.75 3.76667 13.7708 5 13.0625C6.23333 12.3542 7.56667 12 9 12C10.4333 12 11.7667 12.3542 13 13.0625C14.2333 13.7708 15.2 14.75 15.9 16ZM9 11C9.83333 11 10.5417 10.7083 11.125 10.125C11.7083 9.54167 12 8.83333 12 8C12 7.16667 11.7083 6.45833 11.125 5.875C10.5417 5.29167 9.83333 5 9 5C8.16667 5 7.45833 5.29167 6.875 5.875C6.29167 6.45833 6 7.16667 6 8C6 8.83333 6.29167 9.54167 6.875 10.125C7.45833 10.7083 8.16667 11 9 11ZM19 15L21 13L19.5 11H17.85C17.75 10.7 17.6667 10.3792 17.6 10.0375C17.5333 9.69583 17.5 9.35 17.5 9C17.5 8.65 17.5333 8.3125 17.6 7.9875C17.6667 7.6625 17.75 7.33333 17.85 7H19.5L21 5L19 3C18.1 3.7 17.375 4.5875 16.825 5.6625C16.275 6.7375 16 7.85 16 9C16 10.15 16.275 11.2625 16.825 12.3375C17.375 13.4125 18.1 14.3 19 15ZM4.55 16H13.45C12.8833 15.3667 12.2125 14.875 11.4375 14.525C10.6625 14.175 9.85 14 9 14C8.15 14 7.34167 14.175 6.575 14.525C5.80833 14.875 5.13333 15.3667 4.55 16ZM9 9C8.71667 9 8.47917 8.90417 8.2875 8.7125C8.09583 8.52083 8 8.28333 8 8C8 7.71667 8.09583 7.47917 8.2875 7.2875C8.47917 7.09583 8.71667 7 9 7C9.28333 7 9.52083 7.09583 9.7125 7.2875C9.90417 7.47917 10 7.71667 10 8C10 8.28333 9.90417 8.52083 9.7125 8.7125C9.52083 8.90417 9.28333 9 9 9Z" fill="currentColor"/>
</svg>
