<svg width="74" height="74" viewBox="0 0 74 74" fill="currentColor" xmlns="http://www.w3.org/2000/svg">
<rect width="73.47" height="73.499" rx="36.735" fill="currentColor"/>
<path d="M43.7438 41.4907L42.8472 42.3834C42.8472 42.3834 40.7131 44.5037 34.8902 38.7142C29.0672 32.9247 31.2013 30.8044 31.2013 30.8044L31.7649 30.2409C33.1581 28.8575 33.2901 26.6348 32.0743 25.0111L29.5914 21.6946C28.0859 19.6847 25.1793 19.4186 23.4551 21.133L20.3614 24.2071C19.5081 25.0583 18.9367 26.1579 19.0056 27.3796C19.183 30.5069 20.5978 37.2324 28.4879 45.0791C36.8568 53.3987 44.7094 53.7297 47.9194 53.4302C48.9362 53.3356 49.819 52.8193 50.5304 52.11L53.3285 49.3275C55.2203 47.4496 54.6882 44.2278 52.2684 42.9134L48.5046 40.866C46.9164 40.0029 44.9853 40.2571 43.7438 41.4907Z" fill="#FDFDFD"/>
</svg>
