<svg width="10" height="12" viewBox="0 0 10 12" fill="currentColor" xmlns="http://www.w3.org/2000/svg">
<path d="M2.66634 10.666H7.33301V8.91602C7.33301 8.27435 7.10454 7.72504 6.64759 7.2681C6.19065 6.81115 5.64134 6.58268 4.99967 6.58268C4.35801 6.58268 3.8087 6.81115 3.35176 7.2681C2.89481 7.72504 2.66634 8.27435 2.66634 8.91602V10.666ZM4.99967 5.41602C5.64134 5.41602 6.19065 5.18754 6.64759 4.7306C7.10454 4.27365 7.33301 3.72435 7.33301 3.08268V1.33268H2.66634V3.08268C2.66634 3.72435 2.89481 4.27365 3.35176 4.7306C3.8087 5.18754 4.35801 5.41602 4.99967 5.41602ZM0.333008 11.8327V10.666H1.49967V8.91602C1.49967 8.32296 1.63822 7.76636 1.9153 7.24622C2.19238 6.72609 2.57884 6.31046 3.07467 5.99935C2.57884 5.68824 2.19238 5.27261 1.9153 4.75247C1.63822 4.23234 1.49967 3.67574 1.49967 3.08268V1.33268H0.333008V0.166016H9.66634V1.33268H8.49967V3.08268C8.49967 3.67574 8.36113 4.23234 8.08405 4.75247C7.80697 5.27261 7.42051 5.68824 6.92467 5.99935C7.42051 6.31046 7.80697 6.72609 8.08405 7.24622C8.36113 7.76636 8.49967 8.32296 8.49967 8.91602V10.666H9.66634V11.8327H0.333008Z" fill="currentColor"/>
</svg>
