<svg width="72" height="72" viewBox="0 0 72 72" fill="none" xmlns="http://www.w3.org/2000/svg">
<rect x="0.633301" y="0.733887" width="70.5182" height="70.5182" rx="35.2591" fill="white" fill-opacity="0.24"/>
<path fill-rule="evenodd" clip-rule="evenodd" d="M56.8799 35.9924C56.8799 47.5836 47.4835 56.98 35.8923 56.98C24.3012 56.98 14.9048 47.5836 14.9048 35.9924C14.9048 24.4013 24.3012 15.0049 35.8923 15.0049C47.4835 15.0049 56.8799 24.4013 56.8799 35.9924ZM44.351 29.6325C44.9657 30.2472 44.9657 31.2439 44.351 31.8586L33.8572 42.3524C33.2425 42.9671 32.2459 42.9671 31.6312 42.3524L27.4337 38.1549C26.819 37.5401 26.819 36.5435 27.4337 35.9288C28.0484 35.3141 29.045 35.3141 29.6597 35.9288L32.7442 39.0133L37.4346 34.3229L42.125 29.6325C42.7397 29.0178 43.7363 29.0178 44.351 29.6325Z" fill="currentColor"/>
</svg>
