<svg width="4" height="12" viewBox="0 0 4 12" fill="currentColor" xmlns="http://www.w3.org/2000/svg">
<path d="M1.99984 11.3337C1.63317 11.3337 1.31928 11.2031 1.05817 10.942C0.797059 10.6809 0.666504 10.367 0.666504 10.0003C0.666504 9.63366 0.797059 9.31977 1.05817 9.05866C1.31928 8.79755 1.63317 8.66699 1.99984 8.66699C2.3665 8.66699 2.68039 8.79755 2.9415 9.05866C3.20262 9.31977 3.33317 9.63366 3.33317 10.0003C3.33317 10.367 3.20262 10.6809 2.9415 10.942C2.68039 11.2031 2.3665 11.3337 1.99984 11.3337ZM1.99984 7.33366C1.63317 7.33366 1.31928 7.2031 1.05817 6.94199C0.797059 6.68088 0.666504 6.36699 0.666504 6.00033C0.666504 5.63366 0.797059 5.31977 1.05817 5.05866C1.31928 4.79755 1.63317 4.66699 1.99984 4.66699C2.3665 4.66699 2.68039 4.79755 2.9415 5.05866C3.20262 5.31977 3.33317 5.63366 3.33317 6.00033C3.33317 6.36699 3.20262 6.68088 2.9415 6.94199C2.68039 7.2031 2.3665 7.33366 1.99984 7.33366ZM1.99984 3.33366C1.63317 3.33366 1.31928 3.2031 1.05817 2.94199C0.797059 2.68088 0.666504 2.36699 0.666504 2.00033C0.666504 1.63366 0.797059 1.31977 1.05817 1.05866C1.31928 0.797548 1.63317 0.666992 1.99984 0.666992C2.3665 0.666992 2.68039 0.797548 2.9415 1.05866C3.20262 1.31977 3.33317 1.63366 3.33317 2.00033C3.33317 2.36699 3.20262 2.68088 2.9415 2.94199C2.68039 3.2031 2.3665 3.33366 1.99984 3.33366Z" fill="currentColor"/>
</svg>
