<svg width="14" height="12" viewBox="0 0 14 12" fill="currentColor" xmlns="http://www.w3.org/2000/svg">
<path d="M6.99961 11.8336C6.27044 11.8336 5.58746 11.6951 4.95065 11.418C4.31385 11.1409 3.75968 10.7666 3.28815 10.2951C2.81662 9.82352 2.44232 9.26936 2.16523 8.63255C1.88815 7.99575 1.74961 7.31276 1.74961 6.58359C1.74961 5.85443 1.88815 5.17144 2.16523 4.53464C2.44232 3.89783 2.81662 3.34366 3.28815 2.87214C3.75968 2.40061 4.31385 2.0263 4.95065 1.74922C5.58746 1.47214 6.27044 1.33359 6.99961 1.33359C7.72878 1.33359 8.41176 1.47214 9.04857 1.74922C9.68537 2.0263 10.2395 2.40061 10.7111 2.87214C11.1826 3.34366 11.5569 3.89783 11.834 4.53464C12.1111 5.17144 12.2496 5.85443 12.2496 6.58359C12.2496 7.31276 12.1111 7.99575 11.834 8.63255C11.5569 9.26936 11.1826 9.82352 10.7111 10.2951C10.2395 10.7666 9.68537 11.1409 9.04857 11.418C8.41176 11.6951 7.72878 11.8336 6.99961 11.8336ZM8.63294 9.03359L9.44961 8.21693L7.58294 6.35026V3.66693H6.41628V6.81693L8.63294 9.03359ZM3.26628 0.371094L4.08294 1.18776L1.60378 3.66693L0.787109 2.85026L3.26628 0.371094ZM10.7329 0.371094L13.2121 2.85026L12.3954 3.66693L9.91628 1.18776L10.7329 0.371094ZM6.99961 10.6669C8.13711 10.6669 9.10204 10.2707 9.8944 9.47838C10.6868 8.68602 11.0829 7.72109 11.0829 6.58359C11.0829 5.44609 10.6868 4.48116 9.8944 3.6888C9.10204 2.89644 8.13711 2.50026 6.99961 2.50026C5.86211 2.50026 4.89718 2.89644 4.10482 3.6888C3.31246 4.48116 2.91628 5.44609 2.91628 6.58359C2.91628 7.72109 3.31246 8.68602 4.10482 9.47838C4.89718 10.2707 5.86211 10.6669 6.99961 10.6669Z" fill="currentColor"/>
</svg>
