<svg width="63" height="73" viewBox="0 0 63 73" fill="none" xmlns="http://www.w3.org/2000/svg">
<path d="M4.57269 0.117188C2.56322 0.117188 0.919098 1.82711 0.919098 3.91702V57.1146C0.919098 59.2045 2.56322 60.9145 4.57269 60.9145H41.1087C43.1181 60.9145 44.7623 59.2045 44.7623 57.1146V15.3165L30.1479 0.117188H4.57269Z" fill="#E2E5E7"/>
<path d="M33.8015 15.3165H44.7623L30.1479 0.117188V11.5167C30.1479 13.6066 31.792 15.3165 33.8015 15.3165Z" fill="#B0B7BD"/>
<path d="M44.7619 26.7159L33.8011 15.3164H44.7619V26.7159Z" fill="#CAD1D8"/>
<path d="M43.8857 33.2129C33.39 33.2129 24.8529 42.1109 24.8529 53.0515C24.8529 63.9917 33.39 72.8902 43.8857 72.8902C54.382 72.8902 62.9191 63.9917 62.9191 53.0515C62.9191 42.1109 54.382 33.2129 43.8857 33.2129ZM54.0639 53.3501C53.825 53.5828 53.5061 53.6992 53.2036 53.6992C52.8691 53.6992 52.5347 53.5496 52.2795 53.2837L45.1762 45.3151V64.2739C45.1762 65.0048 44.6028 65.6024 43.902 65.6024C43.2014 65.6024 42.628 65.0048 42.628 64.2739V45.2989L35.4928 53.2674C35.0149 53.7987 34.1864 53.832 33.6767 53.3337C33.1674 52.8356 33.1351 51.9889 33.613 51.4576L42.9463 41.0151C43.1852 40.7497 43.5197 40.6001 43.8859 40.6001C44.2526 40.6001 44.5709 40.7498 44.8261 41.0151L54.1594 51.4575C54.6054 52.0059 54.5731 52.8525 54.0639 53.3502V53.3501Z" fill="#1D4ED8"/>
</svg>
