<svg width="37" height="37" viewBox="0 0 37 37" fill="currentColor" xmlns="http://www.w3.org/2000/svg">
<path d="M3.40311 33.75L5.52138 26.0474C3.87952 23.2119 3.22321 19.9163 3.65419 16.6717C4.08517 13.4271 5.57938 10.4146 7.90516 8.10131C10.2309 5.788 13.2584 4.30308 16.5182 3.87674C19.7779 3.45039 23.088 4.10645 25.9351 5.7432C28.7822 7.37995 31.0074 9.90597 32.2657 12.9297C33.524 15.9533 33.7451 19.3058 32.8948 22.4673C32.0445 25.6288 30.1702 28.4228 27.5625 30.416C24.9547 32.4093 21.7593 33.4906 18.4715 33.4922C15.9767 33.497 13.5208 32.8763 11.3304 31.6874L3.40311 33.75ZM11.6912 28.994L12.1537 29.2611C14.0612 30.3889 16.239 30.9838 18.4576 30.983C21.2067 30.978 23.8762 30.0641 26.0469 28.3848C28.2175 26.7055 29.7663 24.356 30.4498 21.7054C31.1334 19.0547 30.9131 16.2531 29.8235 13.7407C28.7339 11.2282 26.8367 9.14727 24.43 7.8247C22.0233 6.50213 19.2434 6.01288 16.527 6.43382C13.8107 6.85476 11.3117 8.16202 9.42279 10.1503C7.53383 12.1385 6.36188 14.6951 6.09102 17.4183C5.82017 20.1416 6.46577 22.8773 7.9264 25.1957L8.22241 25.6561L6.96439 30.2187L11.6912 28.994Z" fill="currentColor"/>
<path fill-rule="evenodd" clip-rule="evenodd" d="M25.8332 22.3117C25.7369 22.1443 25.4941 22.0458 25.1275 21.8489C24.7609 21.6519 22.9326 20.6917 22.6301 20.5539C22.3277 20.416 22.0436 20.352 21.7961 20.7557C21.4299 21.2954 21.0384 21.8147 20.6231 22.3117C20.4077 22.5825 20.1923 22.6071 19.8258 22.4151C18.7357 21.9488 17.7294 21.2824 16.8518 20.4455C16.0428 19.6415 15.348 18.7141 14.7898 17.6931C14.7111 17.5663 14.6823 17.4112 14.7098 17.2617C14.7373 17.1122 14.8188 16.9805 14.9364 16.8954C15.106 16.7132 15.303 16.4276 15.4909 16.2208C15.6424 16.0168 15.7672 15.7915 15.862 15.5512C15.9119 15.4477 15.9379 15.3329 15.9379 15.2164C15.9379 15.0998 15.9119 14.985 15.862 14.8815C15.7658 14.6846 15.0281 12.7249 14.7256 11.9272C14.4232 11.1295 14.0979 11.2576 13.8871 11.2576H13.1814C12.9947 11.2634 12.811 11.3101 12.6416 11.3947C12.4722 11.4794 12.3207 11.6002 12.1962 11.7499C11.7774 12.1747 11.4461 12.6891 11.2235 13.2598C11.001 13.8305 10.8921 14.445 10.904 15.0637C10.904 17.0333 12.2237 18.9093 12.407 19.1801C12.5903 19.4509 15.0189 23.454 18.726 25.1774C19.4179 25.4925 20.1007 25.7732 20.8384 26.0145C21.5924 26.2609 22.3895 26.3149 23.1663 26.172C23.8765 26.0539 25.352 25.1873 25.6636 24.2862C25.9078 23.6624 25.967 22.9729 25.8332 22.3117Z" fill="currentColor"/>
</svg>
