<svg width="24" height="24" viewBox="0 0 24 24" fill="none" xmlns="http://www.w3.org/2000/svg">
<path d="M9.32265 12.8233C8.31579 12.8233 7.45385 12.4719 6.73684 11.7692C6.01983 11.0664 5.66133 10.2217 5.66133 9.23488C5.66133 8.24807 6.01983 7.4033 6.73684 6.70057C7.45385 5.99785 8.31579 5.64648 9.32265 5.64648C10.3295 5.64648 11.1915 5.99785 11.9085 6.70057C12.6255 7.4033 12.984 8.24807 12.984 9.23488C12.984 10.2217 12.6255 11.0664 11.9085 11.7692C11.1915 12.4719 10.3295 12.8233 9.32265 12.8233ZM2 20V17.4882C2 16.9948 2.12967 16.5313 2.38902 16.0977C2.64836 15.6641 3.00687 15.3351 3.46453 15.1109C4.24256 14.7221 5.11976 14.3932 6.09611 14.1241C7.07246 13.8549 8.14798 13.7204 9.32265 13.7204C10.4973 13.7204 11.5728 13.8549 12.5492 14.1241C13.5256 14.3932 14.4027 14.7221 15.1808 15.1109C15.6384 15.3351 15.9969 15.6641 16.2563 16.0977C16.5156 16.5313 16.6453 16.9948 16.6453 17.4882V20H2ZM3.83066 18.2059H14.8146V17.4882C14.8146 17.3237 14.7727 17.1742 14.6888 17.0396C14.6049 16.9051 14.4943 16.8004 14.357 16.7256C13.8078 16.4565 13.1022 16.1874 12.2403 15.9183C11.3783 15.6491 10.4058 15.5146 9.32265 15.5146C8.23951 15.5146 7.26697 15.6491 6.40503 15.9183C5.5431 16.1874 4.83753 16.4565 4.28833 16.7256C4.15103 16.8004 4.04043 16.9051 3.95652 17.0396C3.87262 17.1742 3.83066 17.3237 3.83066 17.4882V18.2059ZM9.32265 11.0291C9.82609 11.0291 10.2571 10.8534 10.6156 10.502C10.9741 10.1507 11.1533 9.72828 11.1533 9.23488C11.1533 8.74147 10.9741 8.31909 10.6156 7.96772C10.2571 7.61636 9.82609 7.44068 9.32265 7.44068C8.81922 7.44068 8.38825 7.61636 8.02975 7.96772C7.67124 8.31909 7.49199 8.74147 7.49199 9.23488C7.49199 9.72828 7.67124 10.1507 8.02975 10.502C8.38825 10.8534 8.81922 11.0291 9.32265 11.0291Z" fill="#DBDBDB"/>
<path d="M16 12L14 9.77778L16 7.55556L16.57 8.17778L15.53 9.33333H21.6V10.2222H15.53L16.57 11.3778L16 12ZM20 8.44444L19.43 7.82222L20.47 6.66667H14.4V5.77778H20.47L19.43 4.62222L20 4L22 6.22222L20 8.44444Z" fill="#DBDBDB"/>
</svg>
