<svg width="20" height="20" viewBox="0 0 20 20" fill="none" xmlns="http://www.w3.org/2000/svg">
<path d="M3.99988 12H11.9999V10H3.99988V12ZM3.99988 9H15.9999V7H3.99988V9ZM3.99988 6H15.9999V4H3.99988V6ZM-0.00012207 20V2C-0.00012207 1.45 0.195711 0.979167 0.587378 0.5875C0.979045 0.195833 1.44988 0 1.99988 0H17.9999C18.5499 0 19.0207 0.195833 19.4124 0.5875C19.804 0.979167 19.9999 1.45 19.9999 2V14C19.9999 14.55 19.804 15.0208 19.4124 15.4125C19.0207 15.8042 18.5499 16 17.9999 16H3.99988L-0.00012207 20ZM3.14988 14H17.9999V2H1.99988V15.125L3.14988 14Z" fill="#5F6368"/>
</svg>
