<svg width="18" height="18" viewBox="0 0 18 18" fill="none" xmlns="http://www.w3.org/2000/svg">
<path d="M16.9499 18C14.8665 18 12.8082 17.5458 10.7749 16.6375C8.74154 15.7292 6.89154 14.4417 5.22488 12.775C3.55821 11.1083 2.27071 9.25833 1.36238 7.225C0.454045 5.19167 -0.00012207 3.13333 -0.00012207 1.05C-0.00012207 0.75 0.0998779 0.5 0.299878 0.3C0.499878 0.1 0.749878 0 1.04988 0H5.09988C5.33321 0 5.54154 0.0791667 5.72488 0.2375C5.90821 0.395833 6.01654 0.583333 6.04988 0.8L6.69988 4.3C6.73321 4.56667 6.72488 4.79167 6.67488 4.975C6.62488 5.15833 6.53321 5.31667 6.39988 5.45L3.97488 7.9C4.30821 8.51667 4.70404 9.1125 5.16238 9.6875C5.62071 10.2625 6.12488 10.8167 6.67488 11.35C7.19154 11.8667 7.73321 12.3458 8.29988 12.7875C8.86654 13.2292 9.46655 13.6333 10.0999 14L12.4499 11.65C12.5999 11.5 12.7957 11.3875 13.0374 11.3125C13.279 11.2375 13.5165 11.2167 13.7499 11.25L17.1999 11.95C17.4332 12.0167 17.6249 12.1375 17.7749 12.3125C17.9249 12.4875 17.9999 12.6833 17.9999 12.9V16.95C17.9999 17.25 17.8999 17.5 17.6999 17.7C17.4999 17.9 17.2499 18 16.9499 18ZM3.02488 6L4.67488 4.35L4.24988 2H2.02488C2.10821 2.68333 2.22488 3.35833 2.37488 4.025C2.52488 4.69167 2.74154 5.35 3.02488 6ZM11.9749 14.95C12.6249 15.2333 13.2874 15.4583 13.9624 15.625C14.6374 15.7917 15.3165 15.9 15.9999 15.95V13.75L13.6499 13.275L11.9749 14.95Z" fill="#5F6368"/>
</svg>
