<svg width="24" height="24" viewBox="0 0 24 24" fill="none" xmlns="http://www.w3.org/2000/svg">
<path d="M20.475 22.0492L13.2 14.7492L12.8 16.6992H8.79999L9.79999 11.5992L7.99999 12.2992V15.6992H5.99999V10.9992L8.39999 9.97422L0.674988 2.24922L2.09999 0.824219L21.9 20.6242L20.475 22.0492ZM3.99999 20.6992C3.44999 20.6992 2.97915 20.5034 2.58749 20.1117C2.19582 19.7201 1.99999 19.2492 1.99999 18.6992V15.6992H3.99999V18.6992H6.99999V20.6992H3.99999ZM20 5.69922V2.69922H17V0.699219H20C20.55 0.699219 21.0208 0.895052 21.4125 1.28672C21.8042 1.67839 22 2.14922 22 2.69922V5.69922H20ZM1.99999 5.69922V2.69922C1.99999 2.41589 2.05415 2.15339 2.16249 1.91172C2.27082 1.67005 2.40832 1.45755 2.57499 1.27422L3.99999 2.72422V5.69922H1.99999ZM17 20.6992V18.6992H19.975L21.4 20.0992C21.2333 20.2826 21.0292 20.4284 20.7875 20.5367C20.5458 20.6451 20.2833 20.6992 20 20.6992H17ZM6.82499 2.69922L4.82499 0.699219H6.99999V2.69922H6.82499ZM22 17.8742L20 15.8742V15.6992H22V17.8742ZM13.5 8.19922C12.95 8.19922 12.4792 8.00339 12.0875 7.61172C11.6958 7.22005 11.5 6.74922 11.5 6.19922C11.5 5.64922 11.6958 5.17839 12.0875 4.78672C12.4792 4.39505 12.95 4.19922 13.5 4.19922C14.05 4.19922 14.5208 4.39505 14.9125 4.78672C15.3042 5.17839 15.5 5.64922 15.5 6.19922C15.5 6.74922 15.3042 7.22005 14.9125 7.61172C14.5208 8.00339 14.05 8.19922 13.5 8.19922Z" fill="#FF5200"/>
</svg>
