<svg width="24" height="24" viewBox="0 0 24 24" fill="none" xmlns="http://www.w3.org/2000/svg">
<path d="M6.5 16C5.25 16 4.1875 15.5625 3.3125 14.6875C2.4375 13.8125 2 12.75 2 11.5C2 10.25 2.4375 9.1875 3.3125 8.3125C4.1875 7.4375 5.25 7 6.5 7C7.75 7 8.8125 7.4375 9.6875 8.3125C10.5625 9.1875 11 10.25 11 11.5C11 11.95 10.9333 12.3833 10.8 12.8C10.6667 13.2167 10.4833 13.6167 10.25 14H13.75C13.5167 13.6167 13.3333 13.2167 13.2 12.8C13.0667 12.3833 13 11.95 13 11.5C13 10.25 13.4375 9.1875 14.3125 8.3125C15.1875 7.4375 16.25 7 17.5 7C18.75 7 19.8125 7.4375 20.6875 8.3125C21.5625 9.1875 22 10.25 22 11.5C22 12.75 21.5625 13.8125 20.6875 14.6875C19.8125 15.5625 18.75 16 17.5 16H6.5ZM6.5 14C7.2 14 7.79167 13.7583 8.275 13.275C8.75833 12.7917 9 12.2 9 11.5C9 10.8 8.75833 10.2083 8.275 9.725C7.79167 9.24167 7.2 9 6.5 9C5.8 9 5.20833 9.24167 4.725 9.725C4.24167 10.2083 4 10.8 4 11.5C4 12.2 4.24167 12.7917 4.725 13.275C5.20833 13.7583 5.8 14 6.5 14ZM17.5 14C18.2 14 18.7917 13.7583 19.275 13.275C19.7583 12.7917 20 12.2 20 11.5C20 10.8 19.7583 10.2083 19.275 9.725C18.7917 9.24167 18.2 9 17.5 9C16.8 9 16.2083 9.24167 15.725 9.725C15.2417 10.2083 15 10.8 15 11.5C15 12.2 15.2417 12.7917 15.725 13.275C16.2083 13.7583 16.8 14 17.5 14Z" fill="#FF5200"/>
</svg>
