<svg xmlns="http://www.w3.org/2000/svg" width="246.36" height="94.582" viewBox="0 0 246.36 94.582">
  <g id="Pulse_logo-02" data-name="Pulse logo-02" transform="translate(50.644 3.503)">
    <path id="Path_1" data-name="Path 1" d="M-50.284,54.83c3.014,1.37,6.784,4.837,10.553-.892s4.22-2.969,4.37,3.19L-33.05,92.58h2.211l6.531-79.794L-17.373,55.9s39.595-.2,45.928-.5c2.613-.9,8.239-5.956,13.166-.567,2.511,2.676,5.928,3.554,9.245,0s3.919-1.243,3.919,3.179S57.8,91.476,57.8,91.476h2.21l4.321-47.132h6.633s.9,5.6,1.81,10.489,3.618,9.409,5.928,2.676,3.819-7.838,8.644-2.011H117.5s5.829-5.756,10.653-.666c2.613,2.174,7.234,5.464,10.45,0s3.618-1.946,3.817,1.872,2.211,33.365,2.211,33.365h2.211s6.229-71.655,6.533-75.173c3.517,20.2,5.928,37.082,6.431,40.9s3.316,7.537,6.131,1.509,4.823-7.035,8.743-2.011c8.745,1.107,14.07,1.406,14.07,1.406" transform="translate(0 -2.371)" fill="none" stroke="#05526a" stroke-miterlimit="10" stroke-width="1.74"/>
    <path id="Path_2" data-name="Path 2" d="M19.2,32.778a31.1,31.1,0,0,1-.956,8.035A18.119,18.119,0,0,1,15.457,46.9a12.4,12.4,0,0,1-4.57,3.86,13.978,13.978,0,0,1-6.256,1.347,11.932,11.932,0,0,1-2.678-.281,10.216,10.216,0,0,1-2.36-.861,14.376,14.376,0,0,1-2.266-1.442A26.99,26.99,0,0,1-4.994,47.5V63.232a1.1,1.1,0,0,1-.225.673,1.675,1.675,0,0,1-.769.507,6.316,6.316,0,0,1-1.442.318,18.793,18.793,0,0,1-2.286.113A18.934,18.934,0,0,1-12,64.73a6.384,6.384,0,0,1-1.442-.318,1.681,1.681,0,0,1-.769-.507,1.089,1.089,0,0,1-.225-.673V16.561a1.154,1.154,0,0,1,.187-.655,1.36,1.36,0,0,1,.655-.467,5.185,5.185,0,0,1,1.236-.283,16.77,16.77,0,0,1,1.929-.094,16.2,16.2,0,0,1,1.892.094,5.082,5.082,0,0,1,1.236.283,1.369,1.369,0,0,1,.655.467,1.158,1.158,0,0,1,.187.655V20.5a33.669,33.669,0,0,1,2.865-2.642A17.355,17.355,0,0,1-.728,15.945,12.966,12.966,0,0,1,2.286,14.8,14.117,14.117,0,0,1,5.6,14.428a12.654,12.654,0,0,1,6.256,1.444,11.816,11.816,0,0,1,4.214,3.951,17.837,17.837,0,0,1,2.379,5.844A32,32,0,0,1,19.2,32.778Z" transform="translate(-5.217 -2.61)" fill="#010101"/>
    <path id="Path_3" data-name="Path 3" d="M11.216,34.8a25.7,25.7,0,0,0-.318-4.1,12.174,12.174,0,0,0-1.085-3.5,6.673,6.673,0,0,0-2.023-2.452,5.155,5.155,0,0,0-3.128-.918,6.357,6.357,0,0,0-1.854.279,7.2,7.2,0,0,0-1.872.918,13.1,13.1,0,0,0-1.967,1.647,23.915,23.915,0,0,0-2.135,2.51V40.2A21.96,21.96,0,0,0,.617,44.073a6.112,6.112,0,0,0,3.747,1.368A5.191,5.191,0,0,0,7.492,44.5a7.26,7.26,0,0,0,2.116-2.453,12.3,12.3,0,0,0,1.216-3.427A18.9,18.9,0,0,0,11.216,34.8Z" transform="translate(-6.858 -3.978)" fill="#e03726"/>
    <path id="Path_4" data-name="Path 4" d="M65.4,50.082a1.172,1.172,0,0,1-.187.655,1.379,1.379,0,0,1-.655.468,5.058,5.058,0,0,1-1.236.279,16.43,16.43,0,0,1-1.93.094,17.234,17.234,0,0,1-2-.094,4.723,4.723,0,0,1-1.216-.279,1.385,1.385,0,0,1-.638-.468,1.154,1.154,0,0,1-.187-.655V46.223a21.2,21.2,0,0,1-5.637,4.494,12.659,12.659,0,0,1-5.938,1.5,13.316,13.316,0,0,1-5.787-1.124,10,10,0,0,1-3.784-3.07,12.385,12.385,0,0,1-2.061-4.514,27.926,27.926,0,0,1-.617-6.386V16.669a1.072,1.072,0,0,1,.207-.655,1.511,1.511,0,0,1,.749-.467,6.9,6.9,0,0,1,1.46-.283c.611-.061,1.366-.094,2.264-.094q1.386,0,2.286.094a6.722,6.722,0,0,1,1.442.283,1.663,1.663,0,0,1,.769.467,1.018,1.018,0,0,1,.225.655V35.546a17.985,17.985,0,0,0,.338,4.007,7.025,7.025,0,0,0,1.029,2.379,4.743,4.743,0,0,0,1.762,1.536,5.43,5.43,0,0,0,2.491.543A6.17,6.17,0,0,0,52.162,42.7a21.621,21.621,0,0,0,3.875-3.82V16.669a1.083,1.083,0,0,1,.207-.655,1.527,1.527,0,0,1,.749-.467,6.884,6.884,0,0,1,1.442-.283c.6-.061,1.36-.094,2.286-.094s1.685.032,2.284.094a6.381,6.381,0,0,1,1.424.283,1.649,1.649,0,0,1,.748.467,1.015,1.015,0,0,1,.226.655V50.082Z" transform="translate(-12.198 -2.718)" fill="#010101"/>
    <path id="Path_5" data-name="Path 5" d="M91.362,47.364a1.02,1.02,0,0,1-.226.655,1.639,1.639,0,0,1-.767.468,6.7,6.7,0,0,1-1.442.279,27.817,27.817,0,0,1-4.57,0,6.7,6.7,0,0,1-1.442-.279,1.669,1.669,0,0,1-.769-.468,1.01,1.01,0,0,1-.225-.655V-1.893a1.092,1.092,0,0,1,.225-.673,1.665,1.665,0,0,1,.769-.507,6.457,6.457,0,0,1,1.442-.318,23.375,23.375,0,0,1,4.57,0,6.551,6.551,0,0,1,1.442.318,1.675,1.675,0,0,1,.767.507,1.088,1.088,0,0,1,.226.673Z" transform="translate(-19.241 0)" fill="#010101"/>
    <path id="Path_6" data-name="Path 6" d="M127.158,40.531a11.249,11.249,0,0,1-1.067,5.02,9.987,9.987,0,0,1-3.015,3.632,13.617,13.617,0,0,1-4.606,2.192,22.7,22.7,0,0,1-12.4-.262,15.933,15.933,0,0,1-2.248-.882,5.6,5.6,0,0,1-1.31-.842,2.622,2.622,0,0,1-.639-1.236,10.363,10.363,0,0,1-.221-2.492,16.485,16.485,0,0,1,.073-1.741,4.486,4.486,0,0,1,.225-1.05.985.985,0,0,1,.375-.525,1.1,1.1,0,0,1,.564-.131,2.8,2.8,0,0,1,1.216.467c.535.314,1.2.655,2,1.03A21.464,21.464,0,0,0,108.9,44.76a12.323,12.323,0,0,0,3.616.488,8.9,8.9,0,0,0,2.264-.263,5.706,5.706,0,0,0,1.723-.749,3.172,3.172,0,0,0,1.1-1.236,3.823,3.823,0,0,0,.376-1.723,2.86,2.86,0,0,0-.695-1.93,6.2,6.2,0,0,0-1.835-1.4,21.161,21.161,0,0,0-2.584-1.124q-1.443-.522-2.959-1.16A26.937,26.937,0,0,1,106.95,34.2a11.25,11.25,0,0,1-2.583-2.021,9.154,9.154,0,0,1-1.836-2.885,10.617,10.617,0,0,1-.693-4.046,10.251,10.251,0,0,1,.937-4.4,9.566,9.566,0,0,1,2.7-3.429,12.7,12.7,0,0,1,4.289-2.21,19.053,19.053,0,0,1,5.674-.787,20.481,20.481,0,0,1,3.054.225,22.453,22.453,0,0,1,2.678.562,12.931,12.931,0,0,1,2.023.73,6.853,6.853,0,0,1,1.179.673,1.868,1.868,0,0,1,.506.562,2.413,2.413,0,0,1,.226.673c.049.263.094.589.129.974s.056.868.056,1.444q0,1.01-.056,1.646a4.207,4.207,0,0,1-.186,1.013.913.913,0,0,1-.355.506,1.018,1.018,0,0,1-.526.132,2.565,2.565,0,0,1-1.048-.394,19,19,0,0,0-1.778-.843,20.98,20.98,0,0,0-2.471-.842,11.879,11.879,0,0,0-3.2-.394,8.231,8.231,0,0,0-2.21.263,4.189,4.189,0,0,0-1.536.748,3.14,3.14,0,0,0-.9,1.143,3.3,3.3,0,0,0-.3,1.4,2.791,2.791,0,0,0,.713,1.948,6.481,6.481,0,0,0,1.874,1.386,21.12,21.12,0,0,0,2.639,1.124q1.48.527,3,1.143a27.639,27.639,0,0,1,3,1.442,11.34,11.34,0,0,1,2.639,2.023,9.4,9.4,0,0,1,1.874,2.865A10.17,10.17,0,0,1,127.158,40.531Z" transform="translate(-22.113 -2.609)" fill="#010101"/>
    <path id="Path_7" data-name="Path 7" d="M170.32,32.291a3.627,3.627,0,0,1-.769,2.547,2.752,2.752,0,0,1-2.116.825H147.1a13.851,13.851,0,0,0,.506,3.875,7.37,7.37,0,0,0,1.611,2.959,7,7,0,0,0,2.847,1.854,12.163,12.163,0,0,0,4.175.638,23.564,23.564,0,0,0,4.347-.355,29,29,0,0,0,3.242-.787q1.368-.428,2.266-.787a4.205,4.205,0,0,1,1.459-.355,1.124,1.124,0,0,1,.564.131.988.988,0,0,1,.375.47,3.212,3.212,0,0,1,.205.954q.055.618.056,1.553c0,.55-.014,1.017-.037,1.4a9.067,9.067,0,0,1-.112.992,2.334,2.334,0,0,1-.225.693,2.54,2.54,0,0,1-.394.543,4.565,4.565,0,0,1-1.328.713,21.239,21.239,0,0,1-2.772.88,38.555,38.555,0,0,1-3.86.749,32.231,32.231,0,0,1-4.645.318,24.578,24.578,0,0,1-7.809-1.124,13.927,13.927,0,0,1-5.6-3.408,14.143,14.143,0,0,1-3.353-5.769,27.066,27.066,0,0,1-1.1-8.166,26.028,26.028,0,0,1,1.159-8.034,16.8,16.8,0,0,1,3.373-6.067,14.49,14.49,0,0,1,5.374-3.8,20.718,20.718,0,0,1,14.309-.074,12.917,12.917,0,0,1,4.888,3.427,13.829,13.829,0,0,1,2.81,5.188,22.606,22.606,0,0,1,.9,6.517v1.5h0Zm-9.139-2.7a9.686,9.686,0,0,0-1.591-6.236,6.156,6.156,0,0,0-5.263-2.266,6.85,6.85,0,0,0-3.128.673,6.386,6.386,0,0,0-2.208,1.818,8.2,8.2,0,0,0-1.348,2.7A13.391,13.391,0,0,0,147.1,29.6h14.082v0Z" transform="translate(-27.331 -2.609)" fill="#010101"/>
    <g id="Group_1" data-name="Group 1" transform="translate(-4.217 62.061)">
      <path id="Path_8" data-name="Path 8" d="M9.391,74.406a1.229,1.229,0,0,1-.012.2.431.431,0,0,1-.038.134.189.189,0,0,1-.066.073.147.147,0,0,1-.086.026H7.022v6.678A.151.151,0,0,1,7,81.6a.159.159,0,0,1-.083.055.818.818,0,0,1-.157.036,1.935,1.935,0,0,1-.247.015,1.7,1.7,0,0,1-.245-.015.941.941,0,0,1-.161-.036.158.158,0,0,1-.083-.055A.151.151,0,0,1,6,81.514V74.836H3.831a.147.147,0,0,1-.086-.026.16.16,0,0,1-.062-.073.487.487,0,0,1-.038-.134,1.314,1.314,0,0,1-.015-.2,1.177,1.177,0,0,1,.015-.2.77.77,0,0,1,.038-.14.173.173,0,0,1,.062-.077.16.16,0,0,1,.086-.026H9.186a.153.153,0,0,1,.086.026.185.185,0,0,1,.066.077.43.43,0,0,1,.038.14A1.183,1.183,0,0,1,9.391,74.406Z" transform="translate(-3.629 -73.336)" fill="#010101"/>
      <path id="Path_9" data-name="Path 9" d="M16.154,81.419a.14.14,0,0,1-.024.082.19.19,0,0,1-.077.055.479.479,0,0,1-.149.036c-.062.006-.143.012-.238.012a2.055,2.055,0,0,1-.244-.012.564.564,0,0,1-.149-.036A.173.173,0,0,1,15.2,81.5a.137.137,0,0,1-.024-.082V78.284a3.06,3.06,0,0,0-.072-.737,1.532,1.532,0,0,0-.208-.482.92.92,0,0,0-.354-.311,1.143,1.143,0,0,0-.5-.106,1.28,1.28,0,0,0-.739.261,4.021,4.021,0,0,0-.773.769v3.744a.141.141,0,0,1-.024.082.19.19,0,0,1-.077.055.466.466,0,0,1-.149.036,2.122,2.122,0,0,1-.245.012,2.02,2.02,0,0,1-.238-.012.612.612,0,0,1-.153-.036.164.164,0,0,1-.077-.055.156.156,0,0,1-.021-.082V73.47a.182.182,0,0,1,.021-.085.145.145,0,0,1,.077-.058.509.509,0,0,1,.153-.036,2,2,0,0,1,.238-.012,2.1,2.1,0,0,1,.245.012.564.564,0,0,1,.149.036.155.155,0,0,1,.077.058.151.151,0,0,1,.024.085v3.208a3.13,3.13,0,0,1,.85-.665,1.878,1.878,0,0,1,.864-.217,2,2,0,0,1,.9.183,1.607,1.607,0,0,1,.592.484,1.905,1.905,0,0,1,.324.713,4.236,4.236,0,0,1,.1.984S16.154,81.419,16.154,81.419Z" transform="translate(-4.781 -73.236)" fill="#010101"/>
      <path id="Path_10" data-name="Path 10" d="M23.548,78.938a.406.406,0,0,1-.117.33.4.4,0,0,1-.266.1H19.637a3.261,3.261,0,0,0,.091.8,1.535,1.535,0,0,0,.3.613,1.361,1.361,0,0,0,.544.394,2.149,2.149,0,0,0,.819.137,3.333,3.333,0,0,0,.681-.062,3.767,3.767,0,0,0,.518-.14c.146-.052.265-.1.36-.14a.589.589,0,0,1,.213-.064.127.127,0,0,1,.074.022.121.121,0,0,1,.05.062.443.443,0,0,1,.026.116,1.554,1.554,0,0,1,.009.18,1.244,1.244,0,0,1-.006.135.717.717,0,0,1-.015.1.259.259,0,0,1-.03.082.326.326,0,0,1-.054.068.838.838,0,0,1-.193.107,3.357,3.357,0,0,1-.416.147c-.171.046-.369.091-.592.128a4.339,4.339,0,0,1-.717.055,3.332,3.332,0,0,1-1.157-.183,2.18,2.18,0,0,1-.837-.549,2.328,2.328,0,0,1-.512-.91,4.249,4.249,0,0,1-.173-1.273,4.006,4.006,0,0,1,.179-1.24,2.633,2.633,0,0,1,.514-.936,2.238,2.238,0,0,1,.812-.589,2.673,2.673,0,0,1,1.066-.207,2.569,2.569,0,0,1,1.073.2,2.051,2.051,0,0,1,.73.544,2.179,2.179,0,0,1,.42.8,3.539,3.539,0,0,1,.134.986Zm-.989-.291a1.8,1.8,0,0,0-.343-1.215,1.312,1.312,0,0,0-1.075-.438,1.412,1.412,0,0,0-.641.137,1.364,1.364,0,0,0-.461.363,1.649,1.649,0,0,0-.287.526,2.2,2.2,0,0,0-.115.629h2.921Z" transform="translate(-5.811 -73.665)" fill="#010101"/>
      <path id="Path_11" data-name="Path 11" d="M33.972,81.419a.14.14,0,0,1-.024.082.19.19,0,0,1-.077.055.479.479,0,0,1-.149.036c-.062.006-.143.012-.238.012a2.055,2.055,0,0,1-.244-.012.564.564,0,0,1-.149-.036.173.173,0,0,1-.077-.055.137.137,0,0,1-.024-.082V78.284a3.06,3.06,0,0,0-.072-.737,1.523,1.523,0,0,0-.208-.482.92.92,0,0,0-.354-.311,1.143,1.143,0,0,0-.5-.106,1.28,1.28,0,0,0-.739.261,4.021,4.021,0,0,0-.773.769v3.744a.141.141,0,0,1-.024.082.19.19,0,0,1-.077.055.466.466,0,0,1-.149.036,2.122,2.122,0,0,1-.245.012,2.02,2.02,0,0,1-.238-.012.612.612,0,0,1-.153-.036.164.164,0,0,1-.077-.055.156.156,0,0,1-.021-.082V73.47a.182.182,0,0,1,.021-.085.145.145,0,0,1,.077-.058.509.509,0,0,1,.153-.036,2,2,0,0,1,.238-.012,2.1,2.1,0,0,1,.245.012.564.564,0,0,1,.149.036.155.155,0,0,1,.077.058.151.151,0,0,1,.024.085v3.208a3.13,3.13,0,0,1,.85-.665,1.878,1.878,0,0,1,.864-.217,2,2,0,0,1,.9.183,1.607,1.607,0,0,1,.592.484,1.892,1.892,0,0,1,.324.713,4.236,4.236,0,0,1,.1.984S33.972,81.419,33.972,81.419Z" transform="translate(-7.374 -73.236)" fill="#010101"/>
      <path id="Path_12" data-name="Path 12" d="M41.364,78.938a.406.406,0,0,1-.117.33.4.4,0,0,1-.266.1H37.453a3.261,3.261,0,0,0,.091.8,1.535,1.535,0,0,0,.3.613,1.361,1.361,0,0,0,.544.394,2.149,2.149,0,0,0,.819.137,3.333,3.333,0,0,0,.681-.062,3.767,3.767,0,0,0,.518-.14c.146-.052.265-.1.36-.14a.589.589,0,0,1,.213-.064.127.127,0,0,1,.074.022.121.121,0,0,1,.05.062.443.443,0,0,1,.026.116,1.544,1.544,0,0,1,.009.18,1.243,1.243,0,0,1-.006.135.716.716,0,0,1-.015.1.259.259,0,0,1-.03.082.326.326,0,0,1-.054.068.838.838,0,0,1-.193.107,3.357,3.357,0,0,1-.416.147c-.171.046-.369.091-.592.128a4.339,4.339,0,0,1-.717.055,3.332,3.332,0,0,1-1.157-.183,2.18,2.18,0,0,1-.837-.549,2.328,2.328,0,0,1-.512-.91,4.249,4.249,0,0,1-.173-1.273,4.006,4.006,0,0,1,.179-1.24,2.633,2.633,0,0,1,.514-.936,2.238,2.238,0,0,1,.812-.589,2.673,2.673,0,0,1,1.066-.207,2.569,2.569,0,0,1,1.073.2,2.051,2.051,0,0,1,.73.544,2.179,2.179,0,0,1,.42.8,3.539,3.539,0,0,1,.134.986Zm-.987-.291a1.8,1.8,0,0,0-.343-1.215,1.312,1.312,0,0,0-1.075-.438,1.412,1.412,0,0,0-.641.137,1.364,1.364,0,0,0-.461.363,1.649,1.649,0,0,0-.287.526,2.2,2.2,0,0,0-.115.629h2.921Z" transform="translate(-8.404 -73.665)" fill="#010101"/>
      <path id="Path_13" data-name="Path 13" d="M47.926,81.854a.123.123,0,0,1-.048.107.366.366,0,0,1-.131.054,1.234,1.234,0,0,1-.244.018,1.348,1.348,0,0,1-.247-.018.334.334,0,0,1-.134-.054.132.132,0,0,1-.042-.107V81.32a2.613,2.613,0,0,1-.782.584,2.078,2.078,0,0,1-.913.209,2.474,2.474,0,0,1-.766-.11,1.652,1.652,0,0,1-.583-.317,1.455,1.455,0,0,1-.375-.513,1.7,1.7,0,0,1-.134-.69,1.613,1.613,0,0,1,.185-.787,1.558,1.558,0,0,1,.53-.553,2.574,2.574,0,0,1,.844-.33,5.182,5.182,0,0,1,1.124-.11h.739v-.416a2.058,2.058,0,0,0-.066-.547.975.975,0,0,0-.211-.4.9.9,0,0,0-.378-.237,1.727,1.727,0,0,0-.571-.082,2.239,2.239,0,0,0-.651.088,3.318,3.318,0,0,0-.506.189c-.146.07-.266.134-.363.191a.5.5,0,0,1-.217.086.131.131,0,0,1-.083-.026.181.181,0,0,1-.062-.07.343.343,0,0,1-.038-.122,1.061,1.061,0,0,1-.012-.163,1,1,0,0,1,.021-.235.345.345,0,0,1,.1-.163,1.291,1.291,0,0,1,.277-.181,3.2,3.2,0,0,1,.452-.191,4.166,4.166,0,0,1,.559-.143,3.345,3.345,0,0,1,.613-.058,3.193,3.193,0,0,1,.983.132,1.6,1.6,0,0,1,.655.384,1.486,1.486,0,0,1,.363.629,3.006,3.006,0,0,1,.113.874v3.608Zm-.977-2.445H46.11a3.336,3.336,0,0,0-.7.067,1.436,1.436,0,0,0-.495.2.848.848,0,0,0-.289.323.946.946,0,0,0-.092.43.863.863,0,0,0,.265.665,1.053,1.053,0,0,0,.742.247,1.383,1.383,0,0,0,.717-.2,3.106,3.106,0,0,0,.693-.6Z" transform="translate(-9.436 -73.665)" fill="#010101"/>
      <path id="Path_14" data-name="Path 14" d="M53.916,76.842c0,.088,0,.161-.006.219a.56.56,0,0,1-.024.141.206.206,0,0,1-.044.077.1.1,0,0,1-.074.026.331.331,0,0,1-.116-.026c-.046-.018-.1-.034-.155-.052s-.122-.034-.193-.052a1.161,1.161,0,0,0-.232-.024.753.753,0,0,0-.291.06,1.146,1.146,0,0,0-.3.2,2.54,2.54,0,0,0-.33.363c-.114.151-.243.338-.38.555v3.523a.14.14,0,0,1-.024.082.19.19,0,0,1-.077.055.466.466,0,0,1-.149.036,2.118,2.118,0,0,1-.245.012,2.016,2.016,0,0,1-.238-.012.612.612,0,0,1-.153-.036.164.164,0,0,1-.077-.055.156.156,0,0,1-.021-.082V76.49a.167.167,0,0,1,.018-.08.158.158,0,0,1,.072-.06.34.34,0,0,1,.137-.036,2.149,2.149,0,0,1,.22-.009c.088,0,.159,0,.217.009a.347.347,0,0,1,.134.036.185.185,0,0,1,.068.06.15.15,0,0,1,.021.08v.779a4,4,0,0,1,.414-.524,2.228,2.228,0,0,1,.367-.32,1.1,1.1,0,0,1,.342-.159,1.262,1.262,0,0,1,.342-.046,1.483,1.483,0,0,1,.175.01,1.542,1.542,0,0,1,.205.032,1.426,1.426,0,0,1,.193.052.4.4,0,0,1,.122.061.167.167,0,0,1,.048.055.351.351,0,0,1,.021.07.9.9,0,0,1,.012.122C53.916,76.679,53.916,76.752,53.916,76.842Z" transform="translate(-10.492 -73.664)" fill="#010101"/>
      <path id="Path_15" data-name="Path 15" d="M58.423,81.227a1.218,1.218,0,0,1-.024.273.318.318,0,0,1-.072.149.49.49,0,0,1-.143.091,1.141,1.141,0,0,1-.217.068,2.552,2.552,0,0,1-.259.044,2.1,2.1,0,0,1-.273.018,2.033,2.033,0,0,1-.713-.11,1.136,1.136,0,0,1-.488-.333,1.411,1.411,0,0,1-.277-.565,3.312,3.312,0,0,1-.086-.807v-3.13h-.749a.16.16,0,0,1-.143-.095.65.65,0,0,1-.054-.308,1.009,1.009,0,0,1,.015-.191.547.547,0,0,1,.038-.128.163.163,0,0,1,.062-.072.185.185,0,0,1,.086-.022h.743V74.837a.144.144,0,0,1,.021-.079.174.174,0,0,1,.077-.062.479.479,0,0,1,.151-.038,2.027,2.027,0,0,1,.238-.012,2.055,2.055,0,0,1,.244.012.537.537,0,0,1,.149.038.2.2,0,0,1,.077.062.147.147,0,0,1,.024.079v1.271h1.374a.162.162,0,0,1,.083.022.17.17,0,0,1,.062.072.378.378,0,0,1,.038.128,1.336,1.336,0,0,1,.012.191.65.65,0,0,1-.054.308.159.159,0,0,1-.143.095H56.848v2.989a1.716,1.716,0,0,0,.163.837.618.618,0,0,0,.586.281,1.018,1.018,0,0,0,.245-.026c.072-.018.134-.038.191-.056s.1-.038.143-.056a.254.254,0,0,1,.107-.026.111.111,0,0,1,.056.015.1.1,0,0,1,.042.055.63.63,0,0,1,.026.113A.86.86,0,0,1,58.423,81.227Z" transform="translate(-11.095 -73.435)" fill="#010101"/>
      <path id="Path_16" data-name="Path 16" d="M68.69,78.67a4.772,4.772,0,0,1-.151,1.253,2.8,2.8,0,0,1-.446.95,1.94,1.94,0,0,1-.723.6,2.224,2.224,0,0,1-.983.208,2.256,2.256,0,0,1-.473-.049,1.728,1.728,0,0,1-.426-.163,2.494,2.494,0,0,1-.416-.285,5.049,5.049,0,0,1-.44-.416v.655a.137.137,0,0,1-.1.139.506.506,0,0,1-.134.032,1.817,1.817,0,0,1-.205.012,1.512,1.512,0,0,1-.2-.012.672.672,0,0,1-.137-.032.126.126,0,0,1-.072-.055.192.192,0,0,1-.018-.085V73.472a.182.182,0,0,1,.021-.085.145.145,0,0,1,.077-.058.509.509,0,0,1,.153-.036,2.006,2.006,0,0,1,.238-.012,2.108,2.108,0,0,1,.245.012.564.564,0,0,1,.149.036.155.155,0,0,1,.077.058.151.151,0,0,1,.024.085V76.68a3.908,3.908,0,0,1,.461-.412A2.849,2.849,0,0,1,65.645,76a1.942,1.942,0,0,1,.428-.151,2.216,2.216,0,0,1,1.448.183,1.921,1.921,0,0,1,.672.623,2.725,2.725,0,0,1,.378.913A5,5,0,0,1,68.69,78.67Zm-1.017.113a4.964,4.964,0,0,0-.062-.8,2.223,2.223,0,0,0-.219-.684,1.312,1.312,0,0,0-.414-.478,1.076,1.076,0,0,0-.641-.183,1.387,1.387,0,0,0-.378.055,1.367,1.367,0,0,0-.376.177,2.866,2.866,0,0,0-.4.323,4.792,4.792,0,0,0-.44.494v2.138a4.091,4.091,0,0,0,.778.753,1.333,1.333,0,0,0,.773.259,1.1,1.1,0,0,0,.635-.177,1.385,1.385,0,0,0,.428-.473,2.3,2.3,0,0,0,.239-.661A3.685,3.685,0,0,0,67.673,78.783Z" transform="translate(-12.381 -73.237)" fill="#010101"/>
      <path id="Path_17" data-name="Path 17" d="M75.766,78.938a.374.374,0,0,1-.384.428H71.854a3.261,3.261,0,0,0,.091.8,1.534,1.534,0,0,0,.3.613,1.361,1.361,0,0,0,.544.394,2.149,2.149,0,0,0,.819.137,3.333,3.333,0,0,0,.681-.062,3.767,3.767,0,0,0,.518-.14c.146-.052.265-.1.36-.14a.589.589,0,0,1,.213-.064.127.127,0,0,1,.074.022.121.121,0,0,1,.05.062.443.443,0,0,1,.026.116,1.544,1.544,0,0,1,.009.18,1.247,1.247,0,0,1-.006.135.716.716,0,0,1-.015.1.259.259,0,0,1-.03.082.326.326,0,0,1-.054.068.838.838,0,0,1-.193.107,3.357,3.357,0,0,1-.416.147c-.171.046-.369.091-.592.128a4.339,4.339,0,0,1-.717.055,3.332,3.332,0,0,1-1.157-.183,2.18,2.18,0,0,1-.837-.549,2.328,2.328,0,0,1-.512-.91,4.249,4.249,0,0,1-.173-1.273,4.006,4.006,0,0,1,.179-1.24,2.633,2.633,0,0,1,.514-.936,2.238,2.238,0,0,1,.812-.589,2.673,2.673,0,0,1,1.066-.207,2.569,2.569,0,0,1,1.073.2,2.051,2.051,0,0,1,.73.544,2.179,2.179,0,0,1,.42.8,3.512,3.512,0,0,1,.134.986v.178Zm-.988-.291a1.8,1.8,0,0,0-.343-1.215,1.312,1.312,0,0,0-1.075-.438,1.412,1.412,0,0,0-.641.137,1.364,1.364,0,0,0-.461.363,1.649,1.649,0,0,0-.287.526,2.2,2.2,0,0,0-.115.629h2.921v0Z" transform="translate(-13.41 -73.665)" fill="#010101"/>
      <path id="Path_18" data-name="Path 18" d="M82.329,81.854a.126.126,0,0,1-.049.107.4.4,0,0,1-.131.054,1.234,1.234,0,0,1-.244.018,1.361,1.361,0,0,1-.247-.018.357.357,0,0,1-.134-.054.137.137,0,0,1-.04-.107V81.32a2.641,2.641,0,0,1-.784.584,2.078,2.078,0,0,1-.913.209,2.473,2.473,0,0,1-.766-.11,1.652,1.652,0,0,1-.583-.317,1.455,1.455,0,0,1-.375-.513,1.7,1.7,0,0,1-.134-.69,1.613,1.613,0,0,1,.185-.787,1.558,1.558,0,0,1,.53-.553,2.574,2.574,0,0,1,.844-.33,5.184,5.184,0,0,1,1.125-.11h.737v-.416a2.091,2.091,0,0,0-.067-.547.92.92,0,0,0-.213-.4.87.87,0,0,0-.378-.237,1.72,1.72,0,0,0-.571-.082,2.239,2.239,0,0,0-.651.088,3.319,3.319,0,0,0-.506.189c-.146.07-.267.134-.363.191a.5.5,0,0,1-.217.086.131.131,0,0,1-.083-.026.181.181,0,0,1-.062-.07.343.343,0,0,1-.038-.122,1.061,1.061,0,0,1-.012-.163,1,1,0,0,1,.021-.235.345.345,0,0,1,.1-.163,1.292,1.292,0,0,1,.277-.181,3.2,3.2,0,0,1,.452-.191,4.165,4.165,0,0,1,.559-.143,3.345,3.345,0,0,1,.613-.058,3.191,3.191,0,0,1,.982.132,1.6,1.6,0,0,1,.655.384,1.522,1.522,0,0,1,.363.629,3.007,3.007,0,0,1,.113.874v3.608Zm-.977-2.445h-.838a3.365,3.365,0,0,0-.7.067,1.436,1.436,0,0,0-.495.2.848.848,0,0,0-.289.323.947.947,0,0,0-.092.43.863.863,0,0,0,.265.665,1.053,1.053,0,0,0,.742.247,1.383,1.383,0,0,0,.717-.2,3.148,3.148,0,0,0,.695-.6S81.352,79.41,81.352,79.41Z" transform="translate(-14.443 -73.665)" fill="#010101"/>
      <path id="Path_19" data-name="Path 19" d="M87.719,81.227a1.22,1.22,0,0,1-.024.273.3.3,0,0,1-.072.149.484.484,0,0,1-.144.091,1.1,1.1,0,0,1-.217.068,2.505,2.505,0,0,1-.261.044,2.078,2.078,0,0,1-.273.018,2.033,2.033,0,0,1-.713-.11,1.126,1.126,0,0,1-.488-.333,1.423,1.423,0,0,1-.278-.565,3.4,3.4,0,0,1-.086-.807v-3.13h-.746a.165.165,0,0,1-.144-.095.672.672,0,0,1-.054-.308.993.993,0,0,1,.016-.191.511.511,0,0,1,.038-.128.154.154,0,0,1,.062-.072.186.186,0,0,1,.088-.022h.743V74.837a.161.161,0,0,1,.021-.079.185.185,0,0,1,.079-.062.473.473,0,0,1,.151-.038,2.216,2.216,0,0,1,.238-.012,2.086,2.086,0,0,1,.244.012.569.569,0,0,1,.15.038.224.224,0,0,1,.077.062.134.134,0,0,1,.024.079v1.271h1.376a.162.162,0,0,1,.083.022.159.159,0,0,1,.062.072.343.343,0,0,1,.038.128,1.221,1.221,0,0,1,.012.191.65.65,0,0,1-.054.308.157.157,0,0,1-.143.095H86.147v2.989a1.716,1.716,0,0,0,.163.837.618.618,0,0,0,.587.281.993.993,0,0,0,.244-.026c.072-.018.135-.038.191-.056s.1-.038.143-.056a.267.267,0,0,1,.107-.026.109.109,0,0,1,.056.015.1.1,0,0,1,.042.055.825.825,0,0,1,.027.113A.951.951,0,0,1,87.719,81.227Z" transform="translate(-15.358 -73.435)" fill="#010101"/>
      <path id="Path_20" data-name="Path 20" d="M97.692,79.108a4.03,4.03,0,0,1-.173,1.206,2.618,2.618,0,0,1-.516.95,2.313,2.313,0,0,1-.856.621,2.946,2.946,0,0,1-1.194.223,3.058,3.058,0,0,1-1.151-.2,2.108,2.108,0,0,1-.818-.571,2.4,2.4,0,0,1-.488-.912,4.232,4.232,0,0,1-.161-1.213,4.1,4.1,0,0,1,.169-1.206,2.634,2.634,0,0,1,.512-.95,2.333,2.333,0,0,1,.854-.619,3.02,3.02,0,0,1,1.2-.22,3.078,3.078,0,0,1,1.151.2,2.1,2.1,0,0,1,.819.572,2.43,2.43,0,0,1,.49.908A4.176,4.176,0,0,1,97.692,79.108Zm-1.019.067a4.019,4.019,0,0,0-.082-.822,2.024,2.024,0,0,0-.267-.678,1.336,1.336,0,0,0-.5-.462,1.929,1.929,0,0,0-1.547-.015,1.374,1.374,0,0,0-.52.437,1.947,1.947,0,0,0-.3.671,3.4,3.4,0,0,0-.1.844,3.929,3.929,0,0,0,.082.827,1.934,1.934,0,0,0,.271.675,1.371,1.371,0,0,0,.507.46A1.653,1.653,0,0,0,95,81.28a1.686,1.686,0,0,0,.751-.155,1.4,1.4,0,0,0,.524-.434,1.877,1.877,0,0,0,.3-.666A3.579,3.579,0,0,0,96.673,79.175Z" transform="translate(-16.539 -73.664)" fill="#010101"/>
      <path id="Path_21" data-name="Path 21" d="M102.827,73.853a1.147,1.147,0,0,1-.012.183.751.751,0,0,1-.028.11.113.113,0,0,1-.038.055.109.109,0,0,1-.06.015.26.26,0,0,1-.1-.026c-.042-.018-.094-.038-.153-.06a1.569,1.569,0,0,0-.211-.06,1.326,1.326,0,0,0-.283-.026.888.888,0,0,0-.375.072.578.578,0,0,0-.25.221,1.106,1.106,0,0,0-.138.394,3.478,3.478,0,0,0-.04.587V75.9h1.2a.15.15,0,0,1,.08.022.178.178,0,0,1,.06.072.47.47,0,0,1,.042.128,1.191,1.191,0,0,1,.015.191.65.65,0,0,1-.054.308.159.159,0,0,1-.143.095h-1.2v4.7a.136.136,0,0,1-.026.082.181.181,0,0,1-.08.055.511.511,0,0,1-.151.036,2.047,2.047,0,0,1-.238.012,2.005,2.005,0,0,1-.238-.012.612.612,0,0,1-.153-.036.186.186,0,0,1-.08-.055.138.138,0,0,1-.026-.082V76.716h-.755a.155.155,0,0,1-.144-.095.731.731,0,0,1-.046-.308,1.114,1.114,0,0,1,.012-.191.521.521,0,0,1,.034-.128.165.165,0,0,1,.06-.072.173.173,0,0,1,.085-.022h.755v-.552a3.81,3.81,0,0,1,.1-.96,1.664,1.664,0,0,1,.318-.659,1.307,1.307,0,0,1,.538-.378,2.342,2.342,0,0,1,1.17-.084,1.721,1.721,0,0,1,.3.083.435.435,0,0,1,.143.082.27.27,0,0,1,.06.092.413.413,0,0,1,.032.138A.868.868,0,0,1,102.827,73.853Z" transform="translate(-17.538 -73.229)" fill="#010101"/>
      <path id="Path_22" data-name="Path 22" d="M111.29,76.494c0,.016,0,.032,0,.05s-.006.036-.009.055-.009.043-.015.067-.014.049-.022.077l-1.828,5.09a.318.318,0,0,1-.062.107.278.278,0,0,1-.116.064.734.734,0,0,1-.2.032c-.08.006-.179.009-.3.009s-.219,0-.3-.012a.955.955,0,0,1-.193-.036.259.259,0,0,1-.116-.066.313.313,0,0,1-.066-.1l-1.823-5.09a1.194,1.194,0,0,1-.038-.125c-.01-.036-.016-.062-.02-.08s0-.032,0-.044a.137.137,0,0,1,.026-.083.156.156,0,0,1,.08-.058.57.57,0,0,1,.15-.027c.061,0,.137-.006.227-.006.116,0,.208,0,.278.009a.6.6,0,0,1,.161.032.18.18,0,0,1,.083.06.489.489,0,0,1,.05.089l1.512,4.416.024.073.02-.073,1.493-4.416a.21.21,0,0,1,.042-.089.227.227,0,0,1,.088-.06.463.463,0,0,1,.155-.032c.066,0,.153-.009.259-.009s.167,0,.226.006a.42.42,0,0,1,.14.03.172.172,0,0,1,.073.058A.222.222,0,0,1,111.29,76.494Z" transform="translate(-18.555 -73.679)" fill="#010101"/>
      <path id="Path_23" data-name="Path 23" d="M118.536,79.108a4.029,4.029,0,0,1-.173,1.206,2.618,2.618,0,0,1-.516.95,2.313,2.313,0,0,1-.856.621,2.946,2.946,0,0,1-1.194.223,3.057,3.057,0,0,1-1.151-.2,2.108,2.108,0,0,1-.818-.571,2.4,2.4,0,0,1-.488-.912,4.232,4.232,0,0,1-.161-1.213,4.1,4.1,0,0,1,.169-1.206,2.634,2.634,0,0,1,.512-.95,2.333,2.333,0,0,1,.854-.619,3.02,3.02,0,0,1,1.2-.22,3.079,3.079,0,0,1,1.151.2,2.1,2.1,0,0,1,.819.572,2.43,2.43,0,0,1,.49.908A4.164,4.164,0,0,1,118.536,79.108Zm-1.017.067a4.019,4.019,0,0,0-.082-.822,2.024,2.024,0,0,0-.267-.678,1.336,1.336,0,0,0-.5-.462,1.929,1.929,0,0,0-1.547-.015,1.374,1.374,0,0,0-.52.437,1.947,1.947,0,0,0-.3.671,3.4,3.4,0,0,0-.1.844,3.928,3.928,0,0,0,.082.827,1.933,1.933,0,0,0,.271.675,1.371,1.371,0,0,0,.507.46,1.653,1.653,0,0,0,.793.168,1.686,1.686,0,0,0,.751-.155,1.4,1.4,0,0,0,.524-.434,1.862,1.862,0,0,0,.3-.666A3.624,3.624,0,0,0,117.519,79.175Z" transform="translate(-19.573 -73.664)" fill="#010101"/>
      <path id="Path_24" data-name="Path 24" d="M122.5,74.321a.64.64,0,0,1-.131.47.713.713,0,0,1-.482.125.687.687,0,0,1-.473-.122.9.9,0,0,1,0-.931.7.7,0,0,1,.482-.125.684.684,0,0,1,.473.122A.638.638,0,0,1,122.5,74.321Zm-.114,7.166a.14.14,0,0,1-.024.082.19.19,0,0,1-.077.055.479.479,0,0,1-.15.036,2.085,2.085,0,0,1-.244.012,2.025,2.025,0,0,1-.238-.012.617.617,0,0,1-.151-.036.17.17,0,0,1-.079-.055.156.156,0,0,1-.02-.082V76.129a.156.156,0,0,1,.02-.077.165.165,0,0,1,.079-.06.579.579,0,0,1,.151-.036,2.05,2.05,0,0,1,.238-.012,2.077,2.077,0,0,1,.244.012.617.617,0,0,1,.15.036.187.187,0,0,1,.077.06.132.132,0,0,1,.024.077Z" transform="translate(-20.753 -73.303)" fill="#010101"/>
      <path id="Path_25" data-name="Path 25" d="M128.487,81.032c0,.068,0,.128-.006.177a.814.814,0,0,1-.021.125.6.6,0,0,1-.036.089.546.546,0,0,1-.095.113,1.449,1.449,0,0,1-.253.185,2.409,2.409,0,0,1-.4.2,3.121,3.121,0,0,1-.486.141,2.8,2.8,0,0,1-.541.052,2.59,2.59,0,0,1-1.023-.191,1.93,1.93,0,0,1-.748-.556,2.524,2.524,0,0,1-.458-.9,4.317,4.317,0,0,1-.157-1.23,4.243,4.243,0,0,1,.193-1.359,2.571,2.571,0,0,1,.53-.932,2.082,2.082,0,0,1,.791-.537,2.714,2.714,0,0,1,.984-.175,2.579,2.579,0,0,1,.5.048,2.725,2.725,0,0,1,.443.125,1.905,1.905,0,0,1,.36.177,1.411,1.411,0,0,1,.229.174.58.58,0,0,1,.1.113.336.336,0,0,1,.044.1.653.653,0,0,1,.026.128c0,.048.006.107.006.179a.726.726,0,0,1-.054.326.157.157,0,0,1-.131.092.347.347,0,0,1-.207-.1,2.6,2.6,0,0,0-.295-.217,2.116,2.116,0,0,0-.432-.217,1.677,1.677,0,0,0-.6-.1,1.241,1.241,0,0,0-1.085.546,2.769,2.769,0,0,0-.378,1.581,3.674,3.674,0,0,0,.1.907,1.872,1.872,0,0,0,.287.651,1.2,1.2,0,0,0,.467.39,1.666,1.666,0,0,0,1.228.021,2.345,2.345,0,0,0,.444-.235c.125-.085.229-.162.315-.232a.383.383,0,0,1,.2-.1.105.105,0,0,1,.073.026.164.164,0,0,1,.049.079.587.587,0,0,1,.032.144A1.79,1.79,0,0,1,128.487,81.032Z" transform="translate(-21.186 -73.666)" fill="#010101"/>
      <path id="Path_26" data-name="Path 26" d="M135.244,78.938a.409.409,0,0,1-.116.33.4.4,0,0,1-.267.1h-3.527a3.344,3.344,0,0,0,.091.8,1.517,1.517,0,0,0,.3.613,1.361,1.361,0,0,0,.544.394,2.137,2.137,0,0,0,.819.137,3.327,3.327,0,0,0,.681-.062,3.747,3.747,0,0,0,.519-.14c.146-.052.265-.1.358-.14a.588.588,0,0,1,.213-.064.131.131,0,0,1,.074.022.113.113,0,0,1,.05.062.378.378,0,0,1,.028.116,1.554,1.554,0,0,1,.009.18,1.235,1.235,0,0,1-.006.135c0,.038-.009.072-.015.1a.224.224,0,0,1-.032.082.325.325,0,0,1-.054.068.837.837,0,0,1-.193.107,3.26,3.26,0,0,1-.416.147c-.169.046-.367.091-.59.128a4.368,4.368,0,0,1-.717.055,3.342,3.342,0,0,1-1.159-.183,2.16,2.16,0,0,1-.836-.549,2.329,2.329,0,0,1-.513-.91,4.248,4.248,0,0,1-.173-1.273,4.006,4.006,0,0,1,.179-1.24,2.584,2.584,0,0,1,.516-.936,2.223,2.223,0,0,1,.812-.589,2.67,2.67,0,0,1,1.066-.207,2.586,2.586,0,0,1,1.075.2,2.047,2.047,0,0,1,.729.544,2.178,2.178,0,0,1,.42.8,3.538,3.538,0,0,1,.134.986v.178Zm-.988-.291a1.787,1.787,0,0,0-.345-1.215,1.31,1.31,0,0,0-1.075-.438,1.407,1.407,0,0,0-.641.137,1.387,1.387,0,0,0-.462.363,1.683,1.683,0,0,0-.287.526,2.259,2.259,0,0,0-.113.629h2.923Z" transform="translate(-22.067 -73.665)" fill="#010101"/>
      <path id="Path_27" data-name="Path 27" d="M145.968,80.562c0,.064,0,.119-.006.167a.721.721,0,0,1-.021.126.525.525,0,0,1-.038.094.457.457,0,0,1-.083.1,1.658,1.658,0,0,1-.249.183,3.066,3.066,0,0,1-.473.238,3.836,3.836,0,0,1-.649.195,3.662,3.662,0,0,1-.8.082,3.544,3.544,0,0,1-1.354-.249,2.723,2.723,0,0,1-1.029-.737,3.4,3.4,0,0,1-.655-1.206,6.069,6.069,0,0,1,.02-3.359,3.675,3.675,0,0,1,.693-1.27,2.965,2.965,0,0,1,1.069-.794,3.376,3.376,0,0,1,1.378-.275,3.473,3.473,0,0,1,.649.062,4.279,4.279,0,0,1,.583.157,2.646,2.646,0,0,1,.476.219,1.614,1.614,0,0,1,.289.207.6.6,0,0,1,.1.122.453.453,0,0,1,.038.1,1.184,1.184,0,0,1,.026.134,1.616,1.616,0,0,1,.009.185,1.491,1.491,0,0,1-.012.2.665.665,0,0,1-.036.14.2.2,0,0,1-.056.085.124.124,0,0,1-.082.026.437.437,0,0,1-.233-.116,3.621,3.621,0,0,0-.385-.255,3.038,3.038,0,0,0-.575-.256,2.467,2.467,0,0,0-.81-.116,2.09,2.09,0,0,0-.937.207,1.967,1.967,0,0,0-.721.6,2.964,2.964,0,0,0-.464.972,4.747,4.747,0,0,0-.163,1.313,4.811,4.811,0,0,0,.157,1.294,2.686,2.686,0,0,0,.455.94,1.9,1.9,0,0,0,.727.572,2.357,2.357,0,0,0,.974.193,2.58,2.58,0,0,0,.8-.113,3.039,3.039,0,0,0,.587-.253c.161-.094.295-.179.4-.253a.475.475,0,0,1,.245-.113.113.113,0,0,1,.121.086.652.652,0,0,1,.026.14C145.964,80.4,145.968,80.473,145.968,80.562Z" transform="translate(-23.532 -73.32)" fill="#010101"/>
      <path id="Path_28" data-name="Path 28" d="M153.295,79.108a4.03,4.03,0,0,1-.173,1.206,2.618,2.618,0,0,1-.516.95,2.313,2.313,0,0,1-.856.621,2.946,2.946,0,0,1-1.194.223,3.057,3.057,0,0,1-1.151-.2,2.107,2.107,0,0,1-.818-.571,2.4,2.4,0,0,1-.488-.912,4.232,4.232,0,0,1-.161-1.213,4.1,4.1,0,0,1,.169-1.206,2.634,2.634,0,0,1,.512-.95,2.334,2.334,0,0,1,.854-.619,3.02,3.02,0,0,1,1.2-.22,3.079,3.079,0,0,1,1.151.2,2.105,2.105,0,0,1,.819.572,2.454,2.454,0,0,1,.49.908A4.164,4.164,0,0,1,153.295,79.108Zm-1.019.067a4.023,4.023,0,0,0-.082-.822,2.024,2.024,0,0,0-.267-.678,1.336,1.336,0,0,0-.5-.462,1.929,1.929,0,0,0-1.547-.015,1.374,1.374,0,0,0-.52.437,1.947,1.947,0,0,0-.3.671,3.4,3.4,0,0,0-.1.844,3.928,3.928,0,0,0,.082.827,1.934,1.934,0,0,0,.271.675,1.371,1.371,0,0,0,.507.46,1.653,1.653,0,0,0,.793.168,1.686,1.686,0,0,0,.751-.155,1.4,1.4,0,0,0,.524-.434,1.877,1.877,0,0,0,.3-.666A3.625,3.625,0,0,0,152.276,79.175Z" transform="translate(-24.632 -73.664)" fill="#010101"/>
      <path id="Path_29" data-name="Path 29" d="M163.843,81.848a.147.147,0,0,1-.024.082.185.185,0,0,1-.079.055.466.466,0,0,1-.149.036,2.051,2.051,0,0,1-.238.012,2.078,2.078,0,0,1-.243-.012.613.613,0,0,1-.153-.036.192.192,0,0,1-.08-.055.137.137,0,0,1-.024-.082V78.593a3,3,0,0,0-.06-.619,1.434,1.434,0,0,0-.191-.482.906.906,0,0,0-.333-.311,1.018,1.018,0,0,0-.476-.106,1.125,1.125,0,0,0-.681.261,4.828,4.828,0,0,0-.754.769v3.744a.14.14,0,0,1-.024.082.183.183,0,0,1-.082.055.5.5,0,0,1-.152.036c-.064.006-.143.012-.238.012a2.031,2.031,0,0,1-.235-.012.6.6,0,0,1-.155-.036.174.174,0,0,1-.079-.055.156.156,0,0,1-.021-.082V78.593a2.716,2.716,0,0,0-.066-.619,1.475,1.475,0,0,0-.2-.482.922.922,0,0,0-.332-.311,1,1,0,0,0-.473-.106,1.138,1.138,0,0,0-.684.261,4.517,4.517,0,0,0-.751.769V81.85a.14.14,0,0,1-.024.082.189.189,0,0,1-.077.055.478.478,0,0,1-.15.036,2.086,2.086,0,0,1-.243.012,2.027,2.027,0,0,1-.238-.012.633.633,0,0,1-.152-.036.17.17,0,0,1-.079-.055.156.156,0,0,1-.021-.082V76.492a.136.136,0,0,1,.091-.14.333.333,0,0,1,.137-.036c.055,0,.129-.009.22-.009s.157,0,.217.009a.348.348,0,0,1,.134.036.185.185,0,0,1,.068.06.143.143,0,0,1,.022.08V77.2a3.389,3.389,0,0,1,.878-.742,1.779,1.779,0,0,1,.861-.235,2.121,2.121,0,0,1,.6.079,1.647,1.647,0,0,1,.466.217,1.439,1.439,0,0,1,.345.333,1.948,1.948,0,0,1,.238.432,5.609,5.609,0,0,1,.508-.494,3.227,3.227,0,0,1,.466-.329,1.971,1.971,0,0,1,.434-.18,1.648,1.648,0,0,1,.426-.058,1.864,1.864,0,0,1,.87.183,1.562,1.562,0,0,1,.568.484,1.9,1.9,0,0,1,.309.713,3.829,3.829,0,0,1,.094.86v3.383h0Z" transform="translate(-25.789 -73.665)" fill="#010101"/>
      <path id="Path_30" data-name="Path 30" d="M175.237,81.848a.147.147,0,0,1-.024.082.185.185,0,0,1-.079.055.466.466,0,0,1-.149.036,2.052,2.052,0,0,1-.238.012,2.078,2.078,0,0,1-.243-.012.612.612,0,0,1-.153-.036.186.186,0,0,1-.08-.055.137.137,0,0,1-.024-.082V78.593a3,3,0,0,0-.06-.619,1.434,1.434,0,0,0-.191-.482.907.907,0,0,0-.333-.311,1.018,1.018,0,0,0-.476-.106,1.125,1.125,0,0,0-.681.261,4.827,4.827,0,0,0-.754.769v3.744a.141.141,0,0,1-.024.082.183.183,0,0,1-.082.055.5.5,0,0,1-.152.036c-.064.006-.143.012-.238.012a2.033,2.033,0,0,1-.235-.012.6.6,0,0,1-.155-.036.17.17,0,0,1-.079-.055.156.156,0,0,1-.021-.082V78.593a2.715,2.715,0,0,0-.066-.619,1.474,1.474,0,0,0-.2-.482.922.922,0,0,0-.332-.311,1,1,0,0,0-.473-.106,1.136,1.136,0,0,0-.684.261,4.517,4.517,0,0,0-.751.769V81.85a.14.14,0,0,1-.024.082.19.19,0,0,1-.077.055.479.479,0,0,1-.15.036,2.087,2.087,0,0,1-.244.012,2.026,2.026,0,0,1-.238-.012.633.633,0,0,1-.152-.036.175.175,0,0,1-.079-.055.156.156,0,0,1-.02-.082V76.492a.136.136,0,0,1,.091-.14.333.333,0,0,1,.137-.036c.055,0,.129-.009.22-.009s.157,0,.217.009a.348.348,0,0,1,.134.036.184.184,0,0,1,.068.06.143.143,0,0,1,.022.08V77.2a3.39,3.39,0,0,1,.877-.742,1.779,1.779,0,0,1,.861-.235,2.121,2.121,0,0,1,.6.079,1.646,1.646,0,0,1,.466.217,1.438,1.438,0,0,1,.345.333,1.948,1.948,0,0,1,.238.432,5.607,5.607,0,0,1,.508-.494,3.225,3.225,0,0,1,.466-.329,1.972,1.972,0,0,1,.434-.18,1.648,1.648,0,0,1,.426-.058,1.864,1.864,0,0,1,.87.183,1.562,1.562,0,0,1,.568.484,1.9,1.9,0,0,1,.309.713,3.83,3.83,0,0,1,.094.86v3.383h0Z" transform="translate(-27.447 -73.665)" fill="#010101"/>
      <path id="Path_31" data-name="Path 31" d="M183.559,81.862a.169.169,0,0,1-.021.082.164.164,0,0,1-.074.055.456.456,0,0,1-.141.036,1.611,1.611,0,0,1-.211.012,1.728,1.728,0,0,1-.223-.012.506.506,0,0,1-.137-.036.148.148,0,0,1-.068-.055.174.174,0,0,1-.02-.082v-.709a3.29,3.29,0,0,1-.9.737,1.938,1.938,0,0,1-.9.232,2.055,2.055,0,0,1-.9-.177,1.571,1.571,0,0,1-.59-.484,1.968,1.968,0,0,1-.326-.713,4.3,4.3,0,0,1-.1-.992V76.5a.142.142,0,0,1,.021-.08.179.179,0,0,1,.08-.06.42.42,0,0,1,.155-.036c.062,0,.143-.009.238-.009s.174,0,.238.009a.479.479,0,0,1,.152.036.215.215,0,0,1,.082.06.132.132,0,0,1,.024.08v3.12a3.4,3.4,0,0,0,.068.754,1.409,1.409,0,0,0,.209.482.973.973,0,0,0,.352.308,1.078,1.078,0,0,0,.5.11,1.266,1.266,0,0,0,.735-.261,4.158,4.158,0,0,0,.776-.767V76.5a.157.157,0,0,1,.021-.08.176.176,0,0,1,.082-.06.4.4,0,0,1,.152-.036c.061,0,.143-.009.241-.009s.174,0,.238.009a.425.425,0,0,1,.149.036.246.246,0,0,1,.082.06.123.123,0,0,1,.027.08v5.359Z" transform="translate(-29.144 -73.679)" fill="#010101"/>
      <path id="Path_32" data-name="Path 32" d="M191.366,81.848a.136.136,0,0,1-.026.082.178.178,0,0,1-.077.055.479.479,0,0,1-.149.036,2.424,2.424,0,0,1-.481,0,.579.579,0,0,1-.15-.036.184.184,0,0,1-.077-.055.138.138,0,0,1-.026-.082V78.712a3.06,3.06,0,0,0-.072-.737,1.5,1.5,0,0,0-.208-.482.933.933,0,0,0-.354-.311,1.146,1.146,0,0,0-.5-.106,1.279,1.279,0,0,0-.737.261,4.073,4.073,0,0,0-.775.769v3.744a.14.14,0,0,1-.024.082.189.189,0,0,1-.077.055.478.478,0,0,1-.15.036,2.085,2.085,0,0,1-.243.012,2.026,2.026,0,0,1-.238-.012.632.632,0,0,1-.152-.036.175.175,0,0,1-.079-.055.156.156,0,0,1-.021-.082V76.493a.136.136,0,0,1,.091-.14.333.333,0,0,1,.137-.036c.055,0,.129-.009.22-.009s.157,0,.217.009a.348.348,0,0,1,.134.036.184.184,0,0,1,.068.06.143.143,0,0,1,.022.08V77.2a3.212,3.212,0,0,1,.9-.742,1.938,1.938,0,0,1,.907-.235,2,2,0,0,1,.9.183,1.607,1.607,0,0,1,.592.484,1.919,1.919,0,0,1,.324.713,4.213,4.213,0,0,1,.1.978v3.264Z" transform="translate(-30.28 -73.665)" fill="#010101"/>
      <path id="Path_33" data-name="Path 33" d="M195.609,74.321a.64.64,0,0,1-.131.47.713.713,0,0,1-.482.125.687.687,0,0,1-.473-.122.9.9,0,0,1,0-.931.7.7,0,0,1,.482-.125.684.684,0,0,1,.473.122A.634.634,0,0,1,195.609,74.321Zm-.113,7.166a.14.14,0,0,1-.024.082.189.189,0,0,1-.077.055.478.478,0,0,1-.15.036,2.085,2.085,0,0,1-.244.012,2.026,2.026,0,0,1-.238-.012.634.634,0,0,1-.152-.036.17.17,0,0,1-.079-.055.156.156,0,0,1-.021-.082V76.129a.157.157,0,0,1,.021-.077.165.165,0,0,1,.079-.06.545.545,0,0,1,.152-.036,2.05,2.05,0,0,1,.238-.012,2.077,2.077,0,0,1,.244.012.616.616,0,0,1,.15.036.187.187,0,0,1,.077.06.132.132,0,0,1,.024.077Z" transform="translate(-31.393 -73.303)" fill="#010101"/>
      <path id="Path_34" data-name="Path 34" d="M201.879,81.032c0,.068,0,.128-.006.177a.81.81,0,0,1-.021.125.605.605,0,0,1-.036.089.546.546,0,0,1-.095.113,1.449,1.449,0,0,1-.253.185,2.409,2.409,0,0,1-.4.2,3.119,3.119,0,0,1-.486.141,2.8,2.8,0,0,1-.541.052,2.59,2.59,0,0,1-1.023-.191,1.93,1.93,0,0,1-.748-.556,2.524,2.524,0,0,1-.458-.9,4.317,4.317,0,0,1-.157-1.23,4.242,4.242,0,0,1,.193-1.359,2.571,2.571,0,0,1,.53-.932,2.082,2.082,0,0,1,.791-.537,2.714,2.714,0,0,1,.984-.175,2.579,2.579,0,0,1,.5.048,2.726,2.726,0,0,1,.443.125,1.906,1.906,0,0,1,.36.177,1.412,1.412,0,0,1,.229.174.582.582,0,0,1,.1.113.337.337,0,0,1,.044.1.652.652,0,0,1,.026.128c0,.048.006.107.006.179a.726.726,0,0,1-.054.326.157.157,0,0,1-.131.092.347.347,0,0,1-.207-.1,2.6,2.6,0,0,0-.295-.217,2.115,2.115,0,0,0-.432-.217,1.677,1.677,0,0,0-.6-.1,1.241,1.241,0,0,0-1.085.546,2.769,2.769,0,0,0-.378,1.581,3.673,3.673,0,0,0,.1.907,1.873,1.873,0,0,0,.287.651,1.2,1.2,0,0,0,.467.39,1.666,1.666,0,0,0,1.228.021,2.346,2.346,0,0,0,.444-.235c.125-.085.229-.162.315-.232a.383.383,0,0,1,.2-.1.105.105,0,0,1,.073.026.164.164,0,0,1,.049.079.587.587,0,0,1,.032.144A1.782,1.782,0,0,1,201.879,81.032Z" transform="translate(-31.867 -73.666)" fill="#010101"/>
      <path id="Path_35" data-name="Path 35" d="M207.986,81.854a.123.123,0,0,1-.048.107.4.4,0,0,1-.131.054,1.234,1.234,0,0,1-.244.018,1.348,1.348,0,0,1-.247-.018.345.345,0,0,1-.134-.054.13.13,0,0,1-.042-.107V81.32a2.613,2.613,0,0,1-.782.584,2.078,2.078,0,0,1-.913.209,2.473,2.473,0,0,1-.766-.11,1.652,1.652,0,0,1-.583-.317,1.467,1.467,0,0,1-.376-.513,1.7,1.7,0,0,1-.134-.69,1.6,1.6,0,0,1,.185-.787,1.543,1.543,0,0,1,.53-.553,2.574,2.574,0,0,1,.844-.33,5.2,5.2,0,0,1,1.125-.11h.737v-.416a2.058,2.058,0,0,0-.066-.547.939.939,0,0,0-.213-.4.885.885,0,0,0-.378-.237,1.727,1.727,0,0,0-.571-.082,2.235,2.235,0,0,0-.651.088,3.3,3.3,0,0,0-.507.189q-.217.105-.363.191a.489.489,0,0,1-.217.086.14.14,0,0,1-.085-.026.2.2,0,0,1-.062-.07.327.327,0,0,1-.038-.122.954.954,0,0,1-.014-.163.987.987,0,0,1,.022-.235.35.35,0,0,1,.1-.163,1.293,1.293,0,0,1,.278-.181,3.144,3.144,0,0,1,.454-.191,4.035,4.035,0,0,1,.559-.143,3.345,3.345,0,0,1,.613-.058,3.184,3.184,0,0,1,.982.132,1.6,1.6,0,0,1,.655.384,1.5,1.5,0,0,1,.363.629,3.007,3.007,0,0,1,.113.874v3.608Zm-.977-2.445h-.838a3.365,3.365,0,0,0-.7.067,1.438,1.438,0,0,0-.494.2.863.863,0,0,0-.289.323.97.97,0,0,0-.092.43.866.866,0,0,0,.265.665,1.052,1.052,0,0,0,.741.247,1.374,1.374,0,0,0,.717-.2,3.111,3.111,0,0,0,.695-.6V79.41Z" transform="translate(-32.731 -73.665)" fill="#010101"/>
      <path id="Path_36" data-name="Path 36" d="M215.252,75.974a.3.3,0,0,1,.243.082.362.362,0,0,1,.067.235v5.2a.136.136,0,0,1-.026.082.181.181,0,0,1-.08.055.511.511,0,0,1-.153.036,1.945,1.945,0,0,1-.232.012,2.085,2.085,0,0,1-.244-.012.633.633,0,0,1-.152-.036.181.181,0,0,1-.08-.055.138.138,0,0,1-.026-.082v-4.7H211.8v2.989a1.715,1.715,0,0,0,.163.837.618.618,0,0,0,.587.281.993.993,0,0,0,.244-.026c.072-.018.135-.038.191-.056s.1-.038.143-.056a.267.267,0,0,1,.107-.026.109.109,0,0,1,.056.015.1.1,0,0,1,.042.055.825.825,0,0,1,.026.113,1.062,1.062,0,0,1,.012.18,1.187,1.187,0,0,1-.024.271.307.307,0,0,1-.072.149.435.435,0,0,1-.144.094,1.1,1.1,0,0,1-.217.068,2.5,2.5,0,0,1-.261.044,2.081,2.081,0,0,1-.273.018,2.033,2.033,0,0,1-.713-.11,1.126,1.126,0,0,1-.488-.333,1.423,1.423,0,0,1-.278-.565,3.4,3.4,0,0,1-.086-.807v-3.13h-.749a.164.164,0,0,1-.144-.095.672.672,0,0,1-.054-.308.993.993,0,0,1,.016-.191.553.553,0,0,1,.037-.128.154.154,0,0,1,.062-.072.187.187,0,0,1,.088-.022h.743V74.705a.161.161,0,0,1,.021-.079.185.185,0,0,1,.079-.062.467.467,0,0,1,.152-.038,2.234,2.234,0,0,1,.238-.012,2.086,2.086,0,0,1,.243.012.569.569,0,0,1,.15.038.224.224,0,0,1,.077.062.133.133,0,0,1,.024.079v1.271h3.448v0Zm.423-1.653a.64.64,0,0,1-.131.47.713.713,0,0,1-.482.125.687.687,0,0,1-.473-.122.9.9,0,0,1,0-.931.7.7,0,0,1,.482-.125.681.681,0,0,1,.473.122A.63.63,0,0,1,215.675,74.321Z" transform="translate(-33.645 -73.303)" fill="#010101"/>
      <path id="Path_37" data-name="Path 37" d="M223.582,79.108a4.03,4.03,0,0,1-.173,1.206,2.618,2.618,0,0,1-.516.95,2.313,2.313,0,0,1-.856.621,2.946,2.946,0,0,1-1.194.223,3.057,3.057,0,0,1-1.151-.2,2.107,2.107,0,0,1-.818-.571,2.4,2.4,0,0,1-.488-.912,4.232,4.232,0,0,1-.161-1.213,4.1,4.1,0,0,1,.169-1.206,2.634,2.634,0,0,1,.512-.95,2.334,2.334,0,0,1,.854-.619,3.02,3.02,0,0,1,1.2-.22,3.078,3.078,0,0,1,1.151.2,2.1,2.1,0,0,1,.819.572,2.429,2.429,0,0,1,.49.908A4.163,4.163,0,0,1,223.582,79.108Zm-1.017.067a4.02,4.02,0,0,0-.082-.822,2.024,2.024,0,0,0-.267-.678,1.337,1.337,0,0,0-.5-.462,1.929,1.929,0,0,0-1.547-.015,1.374,1.374,0,0,0-.52.437,1.947,1.947,0,0,0-.3.671,3.4,3.4,0,0,0-.1.844,3.931,3.931,0,0,0,.082.827,1.934,1.934,0,0,0,.271.675,1.371,1.371,0,0,0,.507.46,1.653,1.653,0,0,0,.793.168,1.686,1.686,0,0,0,.751-.155,1.4,1.4,0,0,0,.524-.434,1.862,1.862,0,0,0,.3-.666A3.579,3.579,0,0,0,222.565,79.175Z" transform="translate(-34.861 -73.664)" fill="#010101"/>
      <path id="Path_38" data-name="Path 38" d="M230.8,81.848a.136.136,0,0,1-.026.082.178.178,0,0,1-.077.055.479.479,0,0,1-.149.036,2.424,2.424,0,0,1-.481,0,.578.578,0,0,1-.15-.036.184.184,0,0,1-.077-.055.138.138,0,0,1-.026-.082V78.712a3.058,3.058,0,0,0-.072-.737,1.513,1.513,0,0,0-.208-.482.932.932,0,0,0-.354-.311,1.145,1.145,0,0,0-.5-.106,1.279,1.279,0,0,0-.737.261,4.073,4.073,0,0,0-.775.769v3.744a.14.14,0,0,1-.024.082.189.189,0,0,1-.077.055.478.478,0,0,1-.15.036,2.086,2.086,0,0,1-.244.012,2.026,2.026,0,0,1-.237-.012.632.632,0,0,1-.152-.036.17.17,0,0,1-.079-.055.156.156,0,0,1-.021-.082V76.493a.136.136,0,0,1,.091-.14.333.333,0,0,1,.137-.036c.055,0,.129-.009.22-.009s.157,0,.217.009a.348.348,0,0,1,.134.036.185.185,0,0,1,.068.06.143.143,0,0,1,.022.08V77.2a3.212,3.212,0,0,1,.9-.742,1.938,1.938,0,0,1,.907-.235,2,2,0,0,1,.9.183,1.608,1.608,0,0,1,.592.484,1.919,1.919,0,0,1,.324.713,4.213,4.213,0,0,1,.1.978v3.264Z" transform="translate(-36.019 -73.665)" fill="#010101"/>
      <path id="Path_39" data-name="Path 39" d="M236.971,80.39a1.672,1.672,0,0,1-.153.731,1.44,1.44,0,0,1-.431.541,1.946,1.946,0,0,1-.667.333,2.994,2.994,0,0,1-.85.113,3.369,3.369,0,0,1-.544-.043,3.727,3.727,0,0,1-.466-.113,2.446,2.446,0,0,1-.346-.143,1.011,1.011,0,0,1-.209-.135.325.325,0,0,1-.095-.167,1.134,1.134,0,0,1-.03-.29,1.319,1.319,0,0,1,.012-.191.566.566,0,0,1,.032-.125.134.134,0,0,1,.05-.068.137.137,0,0,1,.074-.021.449.449,0,0,1,.193.08c.086.054.191.113.315.175a2.783,2.783,0,0,0,.444.175,1.943,1.943,0,0,0,.589.082,1.813,1.813,0,0,0,.454-.055,1.091,1.091,0,0,0,.351-.156.694.694,0,0,0,.227-.265.842.842,0,0,0,.082-.382.612.612,0,0,0-.116-.38,1.158,1.158,0,0,0-.306-.275,2.779,2.779,0,0,0-.428-.213c-.159-.061-.323-.125-.49-.191s-.335-.146-.495-.229a1.937,1.937,0,0,1-.432-.314,1.41,1.41,0,0,1-.306-.44,1.479,1.479,0,0,1-.116-.613,1.526,1.526,0,0,1,.122-.6,1.414,1.414,0,0,1,.366-.507,1.805,1.805,0,0,1,.609-.346,2.555,2.555,0,0,1,.855-.132,2.6,2.6,0,0,1,.428.038,2.779,2.779,0,0,1,.386.089,2.132,2.132,0,0,1,.295.114,1.372,1.372,0,0,1,.185.11.3.3,0,0,1,.083.085.232.232,0,0,1,.032.08c.006.032.012.067.018.11a1.2,1.2,0,0,1,.009.161,1.484,1.484,0,0,1-.009.174.425.425,0,0,1-.03.122.192.192,0,0,1-.05.07.1.1,0,0,1-.066.02.328.328,0,0,1-.155-.066,2.373,2.373,0,0,0-.262-.141,3.312,3.312,0,0,0-.378-.14,1.77,1.77,0,0,0-.5-.064,1.593,1.593,0,0,0-.44.055.859.859,0,0,0-.312.161.676.676,0,0,0-.185.247.758.758,0,0,0-.062.309.624.624,0,0,0,.119.39,1.113,1.113,0,0,0,.309.278,2.567,2.567,0,0,0,.434.215c.162.062.329.129.5.2s.336.143.5.226a1.919,1.919,0,0,1,.438.3,1.368,1.368,0,0,1,.306.428A1.45,1.45,0,0,1,236.971,80.39Z" transform="translate(-37.038 -73.665)" fill="#010101"/>
    </g>
  </g>
</svg>
