<svg width="21" height="21" viewBox="0 0 21 21" fill="none" xmlns="http://www.w3.org/2000/svg">
<path d="M16.75 12.95L15.3 11.5C15.5333 11.1167 15.7083 10.7167 15.825 10.3C15.9417 9.88333 16 9.45 16 9H18C18 9.73333 17.8917 10.4292 17.675 11.0875C17.4583 11.7458 17.15 12.3667 16.75 12.95ZM13.8 9.95L12 8.15V3C12 2.71667 11.9042 2.47917 11.7125 2.2875C11.5208 2.09583 11.2833 2 11 2C10.7167 2 10.4792 2.09583 10.2875 2.2875C10.0958 2.47917 9.99999 2.71667 9.99999 3V6.15L7.99999 4.15V3C7.99999 2.16667 8.29166 1.45833 8.87499 0.875C9.45833 0.291667 10.1667 0 11 0C11.8333 0 12.5417 0.291667 13.125 0.875C13.7083 1.45833 14 2.16667 14 3V9C14 9.18333 13.9792 9.35 13.9375 9.5C13.8958 9.65 13.85 9.8 13.8 9.95ZM9.99999 19V15.925C8.26666 15.6917 6.83333 14.9167 5.69999 13.6C4.56666 12.2833 3.99999 10.75 3.99999 9H5.99999C5.99999 10.3833 6.47916 11.5625 7.43749 12.5375C8.39583 13.5125 9.58333 14 11 14C11.5667 14 12.1042 13.9125 12.6125 13.7375C13.1208 13.5625 13.5833 13.3167 14 13L15.425 14.425C14.9417 14.8083 14.4125 15.1333 13.8375 15.4C13.2625 15.6667 12.65 15.8417 12 15.925V19H9.99999ZM18.8 20.6L0.399994 2.2L1.79999 0.8L20.2 19.2L18.8 20.6Z" fill="#2D2D2D"/>
</svg>
