<svg width="21" height="21" viewBox="0 0 21 21" fill="none" xmlns="http://www.w3.org/2000/svg">
<path d="M16.7499 12.95L15.2999 11.5C15.5332 11.1167 15.7082 10.7167 15.8249 10.3C15.9416 9.88333 15.9999 9.45 15.9999 9H17.9999C17.9999 9.73333 17.8916 10.4292 17.6749 11.0875C17.4582 11.7458 17.1499 12.3667 16.7499 12.95ZM13.7999 9.95L11.9999 8.15V3C11.9999 2.71667 11.9041 2.47917 11.7124 2.2875C11.5207 2.09583 11.2832 2 10.9999 2C10.7166 2 10.4791 2.09583 10.2874 2.2875C10.0957 2.47917 9.9999 2.71667 9.9999 3V6.15L7.9999 4.15V3C7.9999 2.16667 8.29157 1.45833 8.8749 0.875C9.45824 0.291667 10.1666 0 10.9999 0C11.8332 0 12.5416 0.291667 13.1249 0.875C13.7082 1.45833 13.9999 2.16667 13.9999 3V9C13.9999 9.18333 13.9791 9.35 13.9374 9.5C13.8957 9.65 13.8499 9.8 13.7999 9.95ZM9.9999 19V15.925C8.26657 15.6917 6.83324 14.9167 5.6999 13.6C4.56657 12.2833 3.9999 10.75 3.9999 9H5.9999C5.9999 10.3833 6.47907 11.5625 7.4374 12.5375C8.39574 13.5125 9.58324 14 10.9999 14C11.5666 14 12.1041 13.9125 12.6124 13.7375C13.1207 13.5625 13.5832 13.3167 13.9999 13L15.4249 14.425C14.9416 14.8083 14.4124 15.1333 13.8374 15.4C13.2624 15.6667 12.6499 15.8417 11.9999 15.925V19H9.9999ZM18.7999 20.6L0.399902 2.2L1.7999 0.8L20.1999 19.2L18.7999 20.6Z" fill="#DBDBDB"/>
</svg>
